<svg width="80" height="80" viewBox="0 0 80 80" fill="none" xmlns="http://www.w3.org/2000/svg">
<g clip-path="url(#clip0_133_2020)">
<path d="M0 40.0009C0 62.0941 17.9072 80.0006 39.9994 80C62.0928 80.0006 80 62.0941 80 40.0009C80.0014 17.9078 62.0928 0 39.9994 0C17.9072 0 0 17.9084 0 40.0009Z" fill="#39DB00"/>
<path d="M79.9994 40.0008C79.9994 39.7329 66.361 25.583 66.361 25.583C63.7258 22.9479 61.0905 20.313 58.4554 17.6779C58.024 17.2461 57.3251 17.2461 56.8932 17.6779L30.0575 44.5126C27.8097 42.2965 25.5928 40.0479 23.3608 37.8157L23.1058 37.5607C22.6741 37.1291 21.975 37.1291 21.5436 37.5607L13.811 45.2934C13.3794 45.7249 13.3794 46.4238 13.811 46.8555L46.3625 79.4084L46.4325 79.4784C65.4652 76.401 79.9994 59.9032 79.9994 40.0008Z" fill="#31B802"/>
<path d="M66.1882 25.4105L58.4555 17.6778C58.024 17.2462 57.3251 17.2462 56.8935 17.6778L30.0574 44.5126L23.1057 37.5608C22.6741 37.1293 21.9752 37.1293 21.5436 37.5608L13.811 45.2935C13.3794 45.7251 13.3794 46.424 13.811 46.8555L29.2765 62.3221C29.4836 62.5293 29.7641 62.6457 30.0574 62.6457C30.3508 62.6457 30.6313 62.5292 30.8383 62.3221L66.188 26.9724C66.6198 26.5409 66.6198 25.842 66.1882 25.4105ZM30.0574 59.9793L16.1541 46.0748L22.3247 39.9041L29.2765 46.8559C29.708 47.2874 30.4069 47.2874 30.8385 46.8559L57.6743 20.0209L63.8449 26.1916L30.0574 59.9793Z" fill="#F4F6F9"/>
</g>
<defs>
<clipPath id="clip0_133_2020">
<rect width="80" height="80" fill="white"/>
</clipPath>
</defs>
</svg>
