<svg width="24" height="24" viewBox="0 0 24 24" fill="none" xmlns="http://www.w3.org/2000/svg">
<g id="about-description-help-svgrepo-com" clip-path="url(#clip0_947_10186)">
<g id="Group">
<path id="Vector" d="M12 0.1875C5.49375 0.1875 0.1875 5.49375 0.1875 12C0.1875 18.5063 5.49375 23.8125 12 23.8125C18.5063 23.8125 23.8125 18.5063 23.8125 12C23.8125 5.49375 18.5063 0.1875 12 0.1875ZM12 22.3125C6.31875 22.3125 1.6875 17.6812 1.6875 12C1.6875 6.31875 6.31875 1.6875 12 1.6875C17.6812 1.6875 22.3125 6.31875 22.3125 12C22.3125 17.6812 17.6812 22.3125 12 22.3125Z" fill="#00A69C"/>
<path id="Vector_2" d="M12.75 10.2188H11.25V17.7188H12.75V10.2188Z" fill="#00A69C"/>
<path id="Vector_3" d="M12.75 6.65625H11.25V8.15625H12.75V6.65625Z" fill="#00A69C"/>
</g>
</g>
<defs>
<clipPath id="clip0_947_10186">
<rect width="24" height="24" fill="white"/>
</clipPath>
</defs>
</svg>
