<svg width="24" height="24" viewBox="0 0 24 24" fill="none" xmlns="http://www.w3.org/2000/svg">
<g id="akar-icons:language">
<g id="Group">
<path id="Vector" d="M14 19C17.771 19 19.657 19 20.828 17.828C22 16.657 22 14.771 22 11C22 7.229 22 5.343 20.828 4.172C19.657 3 17.771 3 14 3H10C6.229 3 4.343 3 3.172 4.172C2 5.343 2 7.229 2 11C2 14.771 2 16.657 3.172 17.828C3.825 18.482 4.7 18.771 6 18.898" stroke="black" stroke-linecap="round" stroke-linejoin="round"/>
<path id="Vector_2" d="M14.0002 19C12.7642 19 11.4022 19.5 10.1592 20.145C8.16124 21.182 7.16224 21.701 6.67024 21.37C6.17824 21.04 6.27124 20.015 6.45824 17.966L6.50024 17.5" stroke="black" stroke-linecap="round"/>
<path id="Vector_3" d="M5.5 13.5L6.5 11.5M6.5 11.5L7.606 9.289C7.68914 9.12312 7.81679 8.98364 7.97467 8.88617C8.13256 8.78869 8.31445 8.73707 8.5 8.73707C8.68555 8.73707 8.86744 8.78869 9.02532 8.88617C9.18321 8.98364 9.31086 9.12312 9.394 9.289L10.5 11.5M6.5 11.5H10.5M10.5 11.5L11.5 13.5M12.5 7.5H14.482V9C14.482 9.5 13.986 10.5 12.995 10.5M16.959 7.5V9.5M16.959 9.5V13.5M16.959 9.5H18.5" stroke="black" stroke-linecap="round" stroke-linejoin="round"/>
</g>
</g>
</svg>
