<svg width="14" height="14" viewBox="0 0 14 14" fill="none" xmlns="http://www.w3.org/2000/svg">
<g id="Group">
<path id="Vector" d="M9.59554 5.48036L3.59825 2.05334M7.4468 0.825606L11.7306 3.27336C11.993 3.42324 12.211 3.63984 12.3627 3.90119C12.5144 4.16255 12.5942 4.45937 12.5942 4.76154V8.76944C12.5942 9.07162 12.5144 9.36843 12.3627 9.62979C12.211 9.89115 11.993 10.1077 11.7306 10.2576L7.4468 12.7054C7.18795 12.8532 6.895 12.931 6.5969 12.931C6.29879 12.931 6.00585 12.8532 5.747 12.7054L1.46322 10.2576C1.20083 10.1077 0.982748 9.89115 0.83108 9.62979C0.679412 9.36843 0.599556 9.07162 0.599609 8.76944V4.76154C0.599556 4.45937 0.679412 4.16255 0.83108 3.90119C0.982748 3.63984 1.20083 3.42324 1.46322 3.27336L5.747 0.825606C6.00585 0.677747 6.29879 0.599976 6.5969 0.599976C6.895 0.599976 7.18795 0.677747 7.4468 0.825606Z" stroke="#E0B108" stroke-width="0.966667" stroke-linecap="round" stroke-linejoin="round"/>
<path id="Vector_2" d="M1.02832 4.19519L5.78503 6.75689C6.03466 6.89127 6.31373 6.96161 6.59723 6.96161C6.88073 6.96161 7.1598 6.89127 7.40943 6.75689L12.1661 4.19519M6.59723 7.19383V12.7627" stroke="#E0B108" stroke-width="0.966667" stroke-linecap="round" stroke-linejoin="round"/>
</g>
</svg>
