<svg width="24" height="24" viewBox="0 0 24 24" fill="none" xmlns="http://www.w3.org/2000/svg">
<g id="chat-dot-round-svgrepo-com" clip-path="url(#clip0_2150_6268)">
<g id="Vector">
<path d="M2.96571 21.3486L6.58971 20.14L7.224 20.4571C8.68114 21.184 10.3011 21.5714 12 21.5714C17.6743 21.5714 22.2857 17.104 22.2857 12.1429C22.2857 7.18171 17.6743 2.71429 12 2.71429C6.32571 2.71429 1.71429 7.18171 1.71429 12.1429C1.71429 13.9943 2.38286 15.8731 3.612 17.4794L4.20343 18.2509L2.964 21.3469L2.96571 21.3486ZM1.75371 23.56C1.59858 23.612 1.43182 23.6185 1.27311 23.5787C1.11441 23.5389 0.970403 23.4546 0.858098 23.3356C0.745793 23.2167 0.669885 23.068 0.639338 22.9073C0.608792 22.7466 0.624884 22.5804 0.685714 22.4286L2.24914 18.52C0.822857 16.6514 0 14.416 0 12.1429C0 6.46171 5.14286 1 12 1C18.8571 1 24 6.46171 24 12.1429C24 17.824 18.8571 23.2857 12 23.2857C10.0769 23.2911 8.17903 22.8474 6.45771 21.9897L1.75371 23.5583V23.56Z" fill="#00A69C"/>
<path d="M2.96571 21.3486L6.58971 20.14L7.224 20.4571C8.68114 21.184 10.3011 21.5714 12 21.5714C17.6743 21.5714 22.2857 17.104 22.2857 12.1429C22.2857 7.18171 17.6743 2.71429 12 2.71429C6.32571 2.71429 1.71429 7.18171 1.71429 12.1429C1.71429 13.9943 2.38286 15.8731 3.612 17.4794L4.20343 18.2509L2.964 21.3469L2.96571 21.3486Z" fill="#00A69C"/>
</g>
<path id="Vector_2" d="M11.9996 13.5139C11.8195 13.5139 11.6412 13.4784 11.4748 13.4095C11.3084 13.3405 11.1572 13.2395 11.0299 13.1122C10.9025 12.9848 10.8015 12.8336 10.7326 12.6672C10.6637 12.5009 10.6282 12.3225 10.6282 12.1424C10.6282 11.9623 10.6637 11.784 10.7326 11.6176C10.8015 11.4512 10.9025 11.3 11.0299 11.1727C11.1572 11.0453 11.3084 10.9443 11.4748 10.8754C11.6412 10.8065 11.8195 10.771 11.9996 10.771C12.3634 10.771 12.7122 10.9155 12.9694 11.1727C13.2266 11.4299 13.3711 11.7787 13.3711 12.1424C13.3711 12.5062 13.2266 12.855 12.9694 13.1122C12.7122 13.3694 12.3634 13.5139 11.9996 13.5139ZM17.1425 13.5139C16.9624 13.5139 16.7841 13.4784 16.6177 13.4095C16.4513 13.3405 16.3001 13.2395 16.1727 13.1122C16.0454 12.9848 15.9444 12.8336 15.8755 12.6672C15.8065 12.5009 15.7711 12.3225 15.7711 12.1424C15.7711 11.9623 15.8065 11.784 15.8755 11.6176C15.9444 11.4512 16.0454 11.3 16.1727 11.1727C16.3001 11.0453 16.4513 10.9443 16.6177 10.8754C16.7841 10.8065 16.9624 10.771 17.1425 10.771C17.5062 10.771 17.855 10.9155 18.1122 11.1727C18.3694 11.4299 18.5139 11.7787 18.5139 12.1424C18.5139 12.5062 18.3694 12.855 18.1122 13.1122C17.855 13.3694 17.5062 13.5139 17.1425 13.5139ZM6.85678 13.5139C6.67668 13.5139 6.49835 13.4784 6.33196 13.4095C6.16557 13.3405 6.01438 13.2395 5.88703 13.1122C5.75969 12.9848 5.65867 12.8336 5.58975 12.6672C5.52082 12.5009 5.48535 12.3225 5.48535 12.1424C5.48535 11.9623 5.52082 11.784 5.58975 11.6176C5.65867 11.4512 5.75969 11.3 5.88703 11.1727C6.01438 11.0453 6.16557 10.9443 6.33196 10.8754C6.49835 10.8065 6.67668 10.771 6.85678 10.771C7.22051 10.771 7.56933 10.9155 7.82653 11.1727C8.08372 11.4299 8.22821 11.7787 8.22821 12.1424C8.22821 12.5062 8.08372 12.855 7.82653 13.1122C7.56933 13.3694 7.22051 13.5139 6.85678 13.5139Z" fill="white"/>
</g>
<defs>
<clipPath id="clip0_2150_6268">
<rect width="24" height="24" fill="white"/>
</clipPath>
</defs>
</svg>
