<svg width="24" height="24" viewBox="0 0 24 24" fill="none" xmlns="http://www.w3.org/2000/svg">
<g id="chat-dot-round-svgrepo-com" clip-path="url(#clip0_2150_6464)">
<path id="Vector" d="M2.88642 20.8045L6.41352 19.6282L7.03084 19.9369C8.44902 20.6443 10.0257 21.0214 11.6791 21.0214C17.2017 21.0214 21.6898 16.6734 21.6898 11.8449C21.6898 7.01643 17.2017 2.66845 11.6791 2.66845C6.15658 2.66845 1.66845 7.01643 1.66845 11.8449C1.66845 13.6468 2.31914 15.4755 3.51542 17.0388L4.09104 17.7896L2.88475 20.8028L2.88642 20.8045ZM1.70682 22.9568C1.55584 23.0074 1.39353 23.0137 1.23907 22.975C1.08461 22.9363 0.944456 22.8542 0.835154 22.7384C0.725852 22.6226 0.651973 22.478 0.622244 22.3215C0.592514 22.1651 0.608176 22.0034 0.667379 21.8556L2.189 18.0515C0.800855 16.2329 0 14.0573 0 11.8449C0 6.31568 5.00535 1 11.6791 1C18.3529 1 23.3583 6.31568 23.3583 11.8449C23.3583 17.3742 18.3529 22.6898 11.6791 22.6898C9.80742 22.6951 7.96034 22.2632 6.28505 21.4285L1.70682 22.9551V22.9568Z" fill="#696969"/>
<path id="Vector_2" d="M11.679 13.1796C11.5037 13.1796 11.3301 13.1451 11.1682 13.078C11.0062 13.0109 10.8591 12.9126 10.7352 12.7886C10.6112 12.6647 10.5129 12.5176 10.4458 12.3556C10.3787 12.1937 10.3442 12.0201 10.3442 11.8448C10.3442 11.6695 10.3787 11.496 10.4458 11.334C10.5129 11.1721 10.6112 11.025 10.7352 10.901C10.8591 10.7771 11.0062 10.6788 11.1682 10.6117C11.3301 10.5446 11.5037 10.5101 11.679 10.5101C12.033 10.5101 12.3725 10.6507 12.6228 10.901C12.8731 11.1513 13.0137 11.4908 13.0137 11.8448C13.0137 12.1988 12.8731 12.5383 12.6228 12.7886C12.3725 13.039 12.033 13.1796 11.679 13.1796ZM16.6843 13.1796C16.509 13.1796 16.3355 13.1451 16.1735 13.078C16.0116 13.0109 15.8644 12.9126 15.7405 12.7886C15.6166 12.6647 15.5182 12.5176 15.4512 12.3556C15.3841 12.1937 15.3496 12.0201 15.3496 11.8448C15.3496 11.6695 15.3841 11.496 15.4512 11.334C15.5182 11.1721 15.6166 11.025 15.7405 10.901C15.8644 10.7771 16.0116 10.6788 16.1735 10.6117C16.3355 10.5446 16.509 10.5101 16.6843 10.5101C17.0383 10.5101 17.3778 10.6507 17.6281 10.901C17.8785 11.1513 18.0191 11.4908 18.0191 11.8448C18.0191 12.1988 17.8785 12.5383 17.6281 12.7886C17.3778 13.039 17.0383 13.1796 16.6843 13.1796ZM6.67363 13.1796C6.49834 13.1796 6.32478 13.1451 6.16284 13.078C6.0009 13.0109 5.85375 12.9126 5.72981 12.7886C5.60587 12.6647 5.50755 12.5176 5.44047 12.3556C5.37339 12.1937 5.33887 12.0201 5.33887 11.8448C5.33887 11.6695 5.37339 11.496 5.44047 11.334C5.50755 11.1721 5.60587 11.025 5.72981 10.901C5.85375 10.7771 6.0009 10.6788 6.16284 10.6117C6.32478 10.5446 6.49834 10.5101 6.67363 10.5101C7.02763 10.5101 7.36713 10.6507 7.61744 10.901C7.86776 11.1513 8.00839 11.4908 8.00839 11.8448C8.00839 12.1988 7.86776 12.5383 7.61744 12.7886C7.36713 13.039 7.02763 13.1796 6.67363 13.1796Z" fill="#696969"/>
</g>
<defs>
<clipPath id="clip0_2150_6464">
<rect width="24" height="24" fill="white"/>
</clipPath>
</defs>
</svg>
