<svg width="17" height="71" viewBox="0 0 17 71" fill="none" xmlns="http://www.w3.org/2000/svg">
<g id="Group 4">
<path id="Vector" d="M12.8086 66.9462C14.0141 65.7401 14.6913 64.1046 14.6913 62.3994C14.6913 60.6941 14.0141 59.0587 12.8086 57.8526C12.2119 57.2554 11.5034 56.7818 10.7235 56.4586C9.94366 56.1354 9.10777 55.9691 8.26361 55.9691C7.41944 55.9691 6.58355 56.1354 5.8037 56.4586C5.02385 56.7818 4.31532 57.2554 3.71861 57.8526C2.51312 59.0587 1.83594 60.6941 1.83594 62.3994C1.83594 64.1046 2.51312 65.7401 3.71861 66.9462L5.11516 68.3226L6.99101 70.1452L7.11313 70.2535C7.82472 70.8301 8.86685 70.7934 9.53713 70.1452L11.7729 67.9691L12.8086 66.9462ZM8.26361 65.1512C7.53306 65.1512 6.83243 64.861 6.31585 64.3444C5.79927 63.8278 5.50906 63.1272 5.50906 62.3966C5.50906 61.6661 5.79927 60.9655 6.31585 60.4489C6.83243 59.9323 7.53306 59.6421 8.26361 59.6421C8.99416 59.6421 9.69479 59.9323 10.2114 60.4489C10.7279 60.9655 11.0182 61.6661 11.0182 62.3966C11.0182 63.1272 10.7279 63.8278 10.2114 64.3444C9.69479 64.861 8.99416 65.1512 8.26361 65.1512Z" fill="#00A69C"/>
<path id="Vector_2" d="M16.0827 2.35921C16.4793 1.20565 15.4161 0.0878103 14.3189 0.505793L0.90882 5.60461C-0.19208 6.02356 -0.325217 7.60282 0.687538 8.21966L4.9681 10.8251L8.79049 6.80643C8.96366 6.63059 9.19559 6.53329 9.43634 6.53549C9.67708 6.53769 9.90738 6.63921 10.0776 6.81819C10.2479 6.99717 10.3444 7.23928 10.3465 7.49238C10.3486 7.74549 10.2561 7.98933 10.0888 8.17139L6.26641 12.19L8.7455 16.6903C9.3313 17.7551 10.8334 17.6141 11.2319 16.4577L16.0827 2.35921Z" fill="#00A69C"/>
<line id="Line 4" x1="7.80458" y1="52.8873" x2="7.80458" y2="11.5691" stroke="#00A69C" stroke-width="0.918182" stroke-dasharray="1.84 0"/>
</g>
</svg>
