<svg width="20" height="20" viewBox="0 0 20 20" fill="none" xmlns="http://www.w3.org/2000/svg">
<g id="solar:gallery-bold-duotone">
<g id="Group">
<path id="Vector" d="M14.9998 6.66667C14.9998 7.10869 14.8242 7.53262 14.5117 7.84518C14.1991 8.15774 13.7752 8.33333 13.3332 8.33333C12.8911 8.33333 12.4672 8.15774 12.1547 7.84518C11.8421 7.53262 11.6665 7.10869 11.6665 6.66667C11.6665 6.22464 11.8421 5.80072 12.1547 5.48816C12.4672 5.17559 12.8911 5 13.3332 5C13.7752 5 14.1991 5.17559 14.5117 5.48816C14.8242 5.80072 14.9998 6.22464 14.9998 6.66667Z" fill="white"/>
<path id="Vector_2" fill-rule="evenodd" clip-rule="evenodd" d="M9.95234 1.0415H10.0473C11.9715 1.0415 13.479 1.0415 14.6557 1.19984C15.859 1.3615 16.809 1.69984 17.5548 2.44484C18.3007 3.19067 18.6382 4.14067 18.7998 5.34484C18.9582 6.52067 18.9582 8.02817 18.9582 9.95234V10.0257C18.9582 11.6165 18.9582 12.9182 18.8715 13.9782C18.7848 15.0448 18.6073 15.934 18.209 16.674C18.034 16.9998 17.8173 17.2923 17.5548 17.5548C16.809 18.3007 15.859 18.6382 14.6548 18.7998C13.479 18.9582 11.9715 18.9582 10.0473 18.9582H9.95234C8.02817 18.9582 6.52067 18.9582 5.344 18.7998C4.14067 18.6382 3.19067 18.2998 2.44484 17.5548C1.784 16.894 1.44234 16.0715 1.2615 15.0498C1.08234 14.0473 1.04984 12.7998 1.04317 11.2515C1.0415 10.8573 1.0415 10.4407 1.0415 10.0007V9.95234C1.0415 8.02817 1.0415 6.52067 1.19984 5.344C1.3615 4.14067 1.69984 3.19067 2.44484 2.44484C3.19067 1.699 4.14067 1.3615 5.34484 1.19984C6.52067 1.0415 8.02817 1.0415 9.95234 1.0415ZM5.51067 2.43817C4.44567 2.5815 3.80317 2.85484 3.329 3.329C2.854 3.804 2.5815 4.44567 2.43817 5.5115C2.29317 6.59484 2.2915 8.01817 2.2915 9.99984C2.2915 10.4407 2.2915 10.8548 2.29317 11.2457C2.29984 12.8073 2.33484 13.9507 2.4915 14.8315C2.64484 15.694 2.9065 16.2482 3.329 16.6707C3.804 17.1457 4.44567 17.4182 5.5115 17.5615C6.59484 17.7065 8.01817 17.7082 9.99984 17.7082C11.9815 17.7082 13.4048 17.7065 14.4882 17.5615C15.554 17.4182 16.1965 17.1448 16.6715 16.6707C16.8465 16.4957 16.989 16.3023 17.1082 16.0815C17.3848 15.5682 17.544 14.8815 17.6257 13.8773C17.7073 12.8732 17.7082 11.6215 17.7082 9.99984C17.7082 8.01817 17.7065 6.59484 17.5615 5.5115C17.4182 4.44567 17.1448 3.80317 16.6707 3.32817C16.1957 2.854 15.554 2.5815 14.4882 2.43817C13.4048 2.29317 11.9815 2.2915 9.99984 2.2915C8.01817 2.2915 6.594 2.29317 5.51067 2.43817Z" fill="white"/>
<path id="Vector_3" opacity="0.4" d="M17.1723 15.9548L14.814 13.8323C14.3934 13.4536 13.8567 13.2289 13.2918 13.1948C12.7268 13.1608 12.1671 13.3194 11.704 13.6448L11.4548 13.8198C11.1339 14.0453 10.7436 14.1505 10.3528 14.1166C9.96196 14.0828 9.59559 13.9122 9.31817 13.6348L5.74317 10.0598C5.39931 9.71624 4.93775 9.51617 4.45194 9.50007C3.96613 9.48398 3.49235 9.65308 3.1265 9.97313L2.2915 10.7031L2.29317 11.2448C2.29984 12.8073 2.33484 13.9506 2.4915 14.8315C2.64567 15.694 2.9065 16.2481 3.329 16.6706C3.804 17.1456 4.44567 17.4181 5.5115 17.5615C6.59484 17.7065 8.01817 17.7081 9.99984 17.7081C11.9815 17.7081 13.4057 17.7065 14.489 17.5615C15.554 17.4181 16.1965 17.1448 16.6707 16.6706C16.8787 16.4634 17.0485 16.2211 17.1723 15.9548Z" fill="white"/>
</g>
</g>
</svg>
