<svg width="22" height="19" viewBox="0 0 22 19" fill="none" xmlns="http://www.w3.org/2000/svg">
<g id="Vector">
<path fill-rule="evenodd" clip-rule="evenodd" d="M8.96029 1.52C8.96029 1.52 9.72028 0.759998 11.2403 0C13.5203 1.52 13.5203 1.52 13.5203 1.52L21.4348 7.28539C21.6474 7.49796 21.7921 7.76877 21.8507 8.06358C21.9093 8.35839 21.8792 8.66396 21.7642 8.94166C21.6492 9.21936 21.4544 9.45673 21.2045 9.62375C20.9546 9.79078 20.6608 9.87996 20.3602 9.88002L20.3603 15.96C20.3603 17.48 19.8853 17.9549 19.6003 18.24C19.3152 18.525 18.0803 19 17.3203 19H15.8002C15.3971 19 15.0105 18.8399 14.7254 18.5548C14.4404 18.2698 12.0003 17.8831 12.0003 17.48V12.92C12.0003 12.5168 12.0003 12.92 12.0003 12.16C12.0003 11.4 12.0003 11.4 12.0003 11.4H10.4803C10.4803 11.4 10.4803 11.4 10.4803 12.16C10.4803 12.92 10.4803 12.5168 10.4803 12.92V17.48C10.4803 17.8831 8.0401 18.2698 7.75505 18.5548C7.46999 18.8399 7.08337 19 6.68025 19H5.1603C3.6403 19 3.16536 18.525 2.8803 18.24C2.59525 17.9549 2.12026 17.48 2.12026 15.96V9.88002C1.81968 9.87996 1.52587 9.79078 1.27596 9.62375C1.02606 9.45673 0.831289 9.21936 0.716271 8.94166C0.601253 8.66396 0.571153 8.35839 0.629775 8.06358C0.688398 7.76877 0.833111 7.49796 1.04562 7.28539L8.96029 1.52Z" fill="#00A69C"/>
<path d="M15.8002 19C15.3971 19 15.0105 18.8399 14.7254 18.5548C14.4404 18.2698 12.0003 17.8831 12.0003 17.48H10.4803C10.4803 17.8831 8.0401 18.2698 7.75505 18.5548C7.46999 18.8399 7.08337 19 6.68025 19H15.8002Z" fill="#00A69C"/>
</g>
</svg>
