<svg width="14" height="14" viewBox="0 0 14 14" fill="none" xmlns="http://www.w3.org/2000/svg">
<g id="ri:search-2-line">
<path id="Vector" d="M6.41699 1.16663C9.31499 1.16663 11.667 3.51863 11.667 6.41663C11.667 9.31463 9.31499 11.6666 6.41699 11.6666C3.51899 11.6666 1.16699 9.31463 1.16699 6.41663C1.16699 3.51863 3.51899 1.16663 6.41699 1.16663ZM6.41699 10.5C8.67274 10.5 10.5003 8.67238 10.5003 6.41663C10.5003 4.16088 8.67274 2.33329 6.41699 2.33329C4.16124 2.33329 2.33366 4.16088 2.33366 6.41663C2.33366 8.67238 4.16124 10.5 6.41699 10.5ZM10.66 10.2829C11.0475 9.87628 11.6937 9.86842 12.091 10.2655L12.3412 10.5156C12.7192 10.8935 12.7332 11.5019 12.373 11.8968L11.9997 12.306C11.6438 12.6961 11.046 12.7423 10.6344 12.4115L10.3483 12.1816C9.89201 11.8148 9.84698 11.1362 10.2509 10.7123L10.66 10.2829Z" fill="#868686"/>
</g>
</svg>
