<svg width="269" height="257" viewBox="0 0 269 257" fill="none" xmlns="http://www.w3.org/2000/svg">
<g clip-path="url(#clip0_1200_11794)">
<path d="M82.3004 125.176C82.2784 117.188 82.2564 109.211 82.2359 101.738C82.1685 101.738 82.1304 101.738 82.1304 101.738C82.1263 100.604 81.6724 99.5189 80.8683 98.72C80.0642 97.9212 78.9759 97.4743 77.8424 97.4776H33.9835C33.0264 97.4552 32.0759 97.6423 31.1987 98.0258C30.1042 98.5975 29.1667 99.4293 28.4688 100.448C22.1661 108.975 11.8474 124.284 6.17949 133.898C4.70125 136.172 3.85815 138.8 3.73759 141.509C3.70022 150.79 3.56757 159.346 3.48622 170.981C3.27778 170.95 3.06508 170.964 2.86264 171.022C2.66019 171.081 2.47276 171.183 2.31312 171.32C2.15348 171.458 2.02539 171.628 1.93759 171.82C1.84978 172.011 1.80432 172.22 1.8043 172.43C1.79917 174.984 1.77352 177.875 1.753 181.591C1.74914 182.361 1.897 183.124 2.18812 183.837C2.47925 184.55 2.90794 185.199 3.44972 185.746C3.99149 186.293 4.63574 186.728 5.34568 187.026C6.05562 187.324 6.81733 187.48 7.58732 187.483C13.6327 187.511 21.2765 187.557 22.2167 187.557L73.904 187.686C75.1653 187.686 77.5317 187.686 82.4419 187.681C82.447 181.518 82.3737 153.327 82.3004 125.176Z" fill="white"/>
<path d="M48.4647 86.8996C43.9715 89.5254 40.0507 91.8786 37.5905 93.4587C36.0558 94.3341 34.926 95.777 34.4443 97.4769C45.0562 97.4769 68.4052 97.4769 77.8422 97.4769C78.9757 97.4736 80.064 97.9205 80.8681 98.7194C81.6722 99.5182 82.1261 100.604 82.1302 101.737H82.2357C82.2035 90.1139 82.1735 79.7168 82.1522 72.4424L79.8913 72.2855C78.9242 72.2105 77.9527 72.2105 76.9855 72.2855C74.7949 72.4857 72.6733 73.1564 70.7657 74.2518C64.3011 77.7996 55.6519 82.6988 48.4647 86.8996Z" fill="white"/>
<path d="M234.257 187.687C239.334 187.687 247.229 187.674 264.26 187.677C265.037 187.677 265.783 187.368 266.333 186.818C266.882 186.268 267.191 185.523 267.191 184.745C267.174 154.753 267.051 93.9728 267.033 67.1016C267.033 66.7174 266.957 66.3368 266.81 65.9818C266.663 65.6268 266.448 65.3043 266.176 65.0327C265.904 64.7611 265.581 64.5458 265.226 64.3991C264.871 64.2523 264.49 64.177 264.106 64.1775C241.927 64.1775 106.749 64.1445 85.0626 64.1409C84.6777 64.1402 84.2964 64.2156 83.9407 64.3627C83.585 64.5099 83.262 64.7259 82.99 64.9983C82.7181 65.2707 82.5027 65.5942 82.3561 65.9501C82.2096 66.306 82.1349 66.6874 82.1362 67.0723C82.2 89.5712 82.4477 176.298 82.4433 187.683C106.144 187.665 172.89 187.62 179.966 187.625" fill="#00A69C"/>
<path d="M207.84 166.191C205.123 166.137 202.423 166.63 199.901 167.641C197.378 168.651 195.085 170.159 193.157 172.075C191.23 173.99 189.707 176.274 188.68 178.79C187.654 181.306 187.144 184.003 187.181 186.72C187.181 199.105 195.806 207.637 207.84 207.637C220.337 207.637 228.499 199.027 228.499 186.72C228.499 175.576 220.011 166.191 207.84 166.191Z" fill="#211715"/>
<path d="M207.84 180.039C206.938 180.021 206.042 180.185 205.205 180.52C204.368 180.856 203.607 181.357 202.967 181.993C202.327 182.629 201.822 183.387 201.482 184.222C201.141 185.057 200.973 185.953 200.986 186.854C200.986 190.964 203.847 193.795 207.841 193.795C211.987 193.795 214.695 190.936 214.695 186.854C214.709 185.952 214.54 185.057 214.2 184.221C213.86 183.385 213.355 182.627 212.715 181.991C212.075 181.355 211.314 180.854 210.476 180.519C209.639 180.183 208.742 180.02 207.84 180.039Z" fill="white"/>
<path d="M47.8554 166.191C45.1383 166.137 42.438 166.629 39.9153 167.64C37.3926 168.651 35.0991 170.159 33.1712 172.074C31.2434 173.99 29.7207 176.273 28.6938 178.789C27.6669 181.306 27.1568 184.003 27.1938 186.72C27.1938 199.105 35.8188 207.637 47.8532 207.637C60.3507 207.637 68.5118 199.027 68.5118 186.72C68.5118 175.576 60.0245 166.191 47.8554 166.191Z" fill="#211715"/>
<path d="M47.8556 180.039C46.9538 180.021 46.0576 180.185 45.2204 180.52C44.3832 180.856 43.6222 181.357 42.9826 181.993C42.343 182.629 41.8379 183.387 41.4975 184.222C41.1571 185.057 40.9883 185.953 41.0012 186.854C41.0012 190.964 43.863 193.795 47.8564 193.795C52.0029 193.795 54.7108 190.936 54.7108 186.854C54.7244 185.952 54.5561 185.057 54.2159 184.221C53.8757 183.385 53.3706 182.627 52.7308 181.991C52.0909 181.355 51.3295 180.854 50.4919 180.519C49.6543 180.183 48.7577 180.02 47.8556 180.039Z" fill="white"/>
<path d="M71.4943 108.568C71.4906 107.838 71.198 107.14 70.6805 106.625C70.163 106.11 69.4627 105.821 68.7328 105.821C60.5614 105.813 48.618 105.772 41.4213 105.772C40.4157 105.729 39.4122 105.896 38.4744 106.261C37.4258 106.863 36.5429 107.716 35.905 108.743C31.6258 114.51 24.5823 125.083 18.8857 134.072C18.4309 134.789 18.1996 135.625 18.2211 136.473C18.2427 137.322 18.5162 138.145 19.0068 138.838C19.4974 139.531 20.1831 140.062 20.9765 140.364C21.7699 140.667 22.6352 140.726 23.4625 140.535C38.256 137.13 57.4372 132.809 69.5273 129.889C70.1162 129.747 70.6397 129.41 71.013 128.933C71.3863 128.456 71.5874 127.866 71.5837 127.261C71.5558 121.506 71.5148 112.938 71.4943 108.568Z" fill="#00A69C" fill-opacity="0.5"/>
<path d="M5.24826 170.587C5.28735 165.159 5.33743 159.732 5.3985 154.305C5.42146 151.971 5.44247 149.638 5.46152 147.304C5.47081 146.149 5.47863 144.994 5.48498 143.838C5.4301 142.587 5.4693 141.333 5.60223 140.088C5.98039 137.715 7.17349 135.651 8.38711 133.623C9.41312 131.913 10.4599 130.213 11.5274 128.524C14.0367 124.54 16.6091 120.597 19.2445 116.693C21.7421 112.974 24.2858 109.285 26.8758 105.627C27.9707 104.088 29.0128 102.441 30.2469 101.01C30.8985 100.159 31.8264 99.5631 32.8706 99.324C33.6812 99.2181 34.5 99.1884 35.3161 99.2353H76.9156C77.7158 99.1297 78.5291 99.2768 79.2417 99.656C79.5831 99.8861 79.8636 100.196 80.0591 100.558C80.2545 100.92 80.359 101.325 80.3637 101.737C80.437 103.994 83.9547 104.008 83.8814 101.737C83.8627 100.516 83.4802 99.3295 82.7831 98.3278C82.0859 97.3262 81.1057 96.5554 79.9679 96.114C78.4114 95.5087 76.5902 95.7176 74.9471 95.7176H38.1523C36.5151 95.7176 34.8244 95.6003 33.193 95.7542C30.2301 96.0341 28.3371 97.6714 26.6346 99.9857C24.0257 103.531 21.5046 107.14 19.018 110.771C16.239 114.831 13.5137 118.928 10.8422 123.061C8.44061 126.785 5.83528 130.526 3.8485 134.494C2.59241 136.984 1.94991 139.739 1.97457 142.528C1.96186 145.035 1.94403 147.542 1.92107 150.05C1.87343 155.367 1.8126 160.684 1.76643 166C1.75324 167.528 1.74127 169.056 1.73052 170.585C1.7144 172.848 5.23214 172.851 5.24826 170.585V170.587Z" fill="#211715"/>
<path d="M73.2518 108.569C73.2375 107.864 73.0628 107.172 72.7409 106.545C72.4189 105.918 71.9583 105.372 71.394 104.95C70.343 104.264 69.0918 103.951 67.8418 104.063C65.2655 104.059 62.6898 104.054 60.1145 104.048C54.8721 104.036 49.6299 104.026 44.388 104.017C41.9256 104.017 39.0059 103.65 36.8886 105.161C35.0044 106.505 33.7197 108.738 32.394 110.603C29.2874 114.971 26.3032 119.426 23.3585 123.904C21.7589 126.337 20.1745 128.78 18.6052 131.233C17.2428 133.366 15.887 135.443 16.6997 138.077C17.0479 139.211 17.7181 140.22 18.6289 140.98C19.5396 141.741 20.6517 142.22 21.8298 142.36C23.1064 142.405 24.3814 142.231 25.5996 141.847L29.4765 140.958C40.3309 138.473 51.1919 136.014 62.0339 133.475C64.3057 132.942 66.5776 132.405 68.8495 131.863C70.0953 131.564 71.2936 131.269 72.1825 130.27C73.0241 129.257 73.4393 127.957 73.3405 126.644C73.3155 121.586 73.2911 116.529 73.2672 111.473C73.2618 110.507 73.2572 109.54 73.2533 108.573C73.2423 106.31 69.7245 106.305 69.7355 108.573C69.756 112.916 69.7768 117.259 69.7978 121.602C69.8027 122.765 69.8083 123.927 69.8147 125.089C69.8147 125.833 70.0778 127.126 69.6937 127.758C69.3207 128.371 68.209 128.403 67.5618 128.558C66.5422 128.802 65.5223 129.045 64.5021 129.286C54.769 131.589 45.0153 133.805 35.2653 136.029C32.7814 136.596 30.2978 137.164 27.8143 137.733L24.2453 138.551C23.4193 138.862 22.5223 138.933 21.6576 138.757C21.0244 138.528 20.5075 138.057 20.2193 137.449C19.9311 136.84 19.8949 136.142 20.1185 135.507C20.6145 134.488 21.2095 133.52 21.895 132.617C22.6054 131.506 23.3194 130.398 24.0372 129.294C26.844 124.965 29.7039 120.67 32.6168 116.412C33.837 114.636 35.0697 112.869 36.3317 111.123C36.8806 110.364 37.4104 109.574 38.0275 108.867C38.3444 108.464 38.7473 108.137 39.2068 107.91C39.6663 107.682 40.1708 107.56 40.6834 107.553C42.786 107.433 44.9201 107.534 47.0256 107.538C49.4372 107.541 51.8488 107.546 54.2604 107.553L61.7356 107.57C64.0185 107.574 66.324 107.483 68.6047 107.581C68.7445 107.568 68.8855 107.583 69.0191 107.627C69.1528 107.67 69.2762 107.74 69.3818 107.832C69.4875 107.925 69.5732 108.038 69.6336 108.164C69.694 108.291 69.728 108.429 69.7333 108.569C69.8454 110.823 73.3639 110.836 73.2518 108.569Z" fill="#211715"/>
<path d="M234.258 189.445C242.363 189.445 250.467 189.442 258.572 189.435C260.345 189.435 262.12 189.445 263.894 189.435C264.628 189.47 265.361 189.341 266.039 189.058C266.716 188.774 267.322 188.343 267.812 187.795C269.371 185.946 268.949 183.299 268.947 181.043C268.944 176.613 268.939 172.183 268.934 167.754C268.921 157.352 268.906 146.951 268.889 136.55C268.872 125.598 268.855 114.646 268.838 103.693C268.823 94.2151 268.81 84.7368 268.799 75.2584C268.799 73.3583 268.797 71.4585 268.793 69.5589C268.793 67.1471 268.939 64.6114 266.605 63.1413C264.857 62.0361 262.218 62.4157 260.21 62.4157H245.832L225.688 62.4084L201.778 62.404L175.796 62.3982L149.733 62.393L125.578 62.3879L105.023 62.3835H90.0727C88.4839 62.3835 86.8943 62.3688 85.3091 62.3835C84.6649 62.3656 84.0236 62.4779 83.4237 62.7135C82.8238 62.9491 82.2775 63.3032 81.8176 63.7547C81.3577 64.2063 80.9935 64.7459 80.7468 65.3413C80.5002 65.9368 80.3762 66.5759 80.3821 67.2204C80.3697 68.3241 80.3887 69.4292 80.3916 70.5337C80.4097 76.934 80.4278 83.3343 80.4459 89.7346L80.5192 115.048C80.5441 124.011 80.5685 132.974 80.5924 141.936C80.613 150.026 80.6332 158.115 80.6533 166.204C80.6665 171.906 80.6782 177.608 80.6884 183.31C80.6884 184.769 80.6899 186.228 80.6928 187.687C80.6995 188.151 80.8869 188.595 81.2153 188.923C81.5438 189.252 81.9873 189.439 82.4517 189.446L100.528 189.432L123.759 189.416L147.77 189.402C154.438 189.398 161.105 189.395 167.773 189.391C171.637 189.391 175.501 189.391 179.365 189.391H179.977C182.24 189.391 182.243 185.873 179.977 185.873C176.567 185.873 173.157 185.873 169.746 185.873L150.538 185.883L126.761 185.898L103.203 185.913L84.2318 185.927H82.4539L84.2128 187.686C84.2128 183.755 84.2067 179.824 84.1945 175.894C84.1803 168.941 84.1642 161.988 84.1461 155.036C84.1241 146.432 84.1016 137.827 84.0787 129.222L84.0054 102.895C83.9849 95.3217 83.9636 87.7488 83.9416 80.1759L83.9072 71.5135L83.8969 68.0221C83.7901 67.4486 83.8765 66.8558 84.1424 66.3366C84.319 66.1558 84.5372 66.0213 84.778 65.9446C85.0187 65.8679 85.2746 65.8515 85.5231 65.8968H96.9433H114.761L136.916 65.9012L161.963 65.913L187.798 65.9188L212.715 65.924L234.907 65.9283L252.569 65.932C256.353 65.932 260.14 65.8902 263.924 65.932C265.761 65.9533 265.277 68.1812 265.278 69.4666C265.278 71.33 265.28 73.1932 265.284 75.0561C265.288 79.4177 265.294 83.7787 265.3 88.1392C265.314 98.3993 265.33 108.662 265.347 118.927C265.364 129.713 265.38 140.499 265.396 151.286C265.41 160.706 265.422 170.126 265.431 179.547V182.497C265.431 183.285 265.667 184.53 265.331 185.246C264.855 186.264 263.34 185.915 262.459 185.915H257.301C252.415 185.915 247.527 185.916 242.636 185.92C239.844 185.92 237.051 185.922 234.258 185.925C231.995 185.925 231.991 189.443 234.258 189.443V189.445Z" fill="#211715"/>
<path d="M73.9034 189.447C76.7567 189.447 79.61 189.445 82.4632 189.442C82.9297 189.442 83.3771 189.257 83.7069 188.927C84.0368 188.597 84.2221 188.149 84.2221 187.683C84.2221 187.216 84.0368 186.769 83.7069 186.439C83.3771 186.109 82.9297 185.924 82.4632 185.924C79.61 185.924 76.7567 185.926 73.9034 185.929C73.4369 185.929 72.9895 186.115 72.6597 186.444C72.3298 186.774 72.1445 187.222 72.1445 187.688C72.1445 188.155 72.3298 188.602 72.6597 188.932C72.9895 189.262 73.4369 189.447 73.9034 189.447Z" fill="#211715"/>
<path d="M19.8911 169.241C16.3245 169.241 12.7579 169.234 9.19129 169.219L6.04438 169.212C4.88386 169.108 3.7155 169.133 2.56035 169.285C2.08183 169.396 1.635 169.615 1.25396 169.925C0.872929 170.235 0.567765 170.628 0.361765 171.074C-0.091144 172.04 0.0451683 173.172 0.0400383 174.212C0.0302668 176.321 0.0170752 178.428 0.000463701 180.534C-0.011995 182.554 0.220322 184.432 1.46106 186.1C2.58449 187.645 4.24718 188.712 6.11986 189.09C8.13377 189.466 10.3243 189.255 12.3668 189.266C15.6493 189.283 18.9332 189.315 22.2164 189.317C24.4795 189.317 24.4832 185.799 22.2164 185.799C19.8647 185.799 17.5137 185.776 15.1626 185.763L9.65006 185.734C8.15649 185.727 6.65705 185.897 5.35036 185.045C4.85105 184.716 4.42958 184.281 4.11531 183.772C3.80104 183.263 3.60152 182.692 3.53066 182.097C3.41928 180.113 3.42442 178.123 3.54605 176.139C3.55094 175.323 3.55533 174.507 3.55924 173.691C3.55924 173.359 3.59515 173.006 3.55924 172.675C3.47203 171.788 3.42366 173.154 3.2661 172.723C4.19075 172.795 5.11943 172.797 6.04438 172.729L9.19129 172.737C12.7579 172.745 16.3245 172.753 19.8911 172.759C22.1549 172.759 22.1586 169.241 19.8911 169.241Z" fill="#211715"/>
<path d="M72.5859 144.727C72.5802 143.99 72.3733 143.269 71.9877 142.641C71.602 142.012 71.0523 141.501 70.3976 141.163C69.1231 140.522 67.5702 140.729 66.1873 140.729H61.5344C60.2255 140.729 58.6498 140.509 57.4032 140.968C56.7156 141.235 56.1134 141.684 55.6612 142.267C55.2089 142.85 54.9236 143.544 54.8357 144.277C54.7477 145.009 54.8605 145.751 55.162 146.425C55.4635 147.098 55.9423 147.676 56.5472 148.099C57.763 148.934 59.2669 148.768 60.6652 148.768H67.4236C68.2096 148.829 69.0002 148.771 69.7688 148.595C70.5882 148.332 71.3029 147.816 71.8098 147.12C72.3167 146.425 72.5895 145.586 72.5888 144.726C72.6218 142.839 69.6904 142.839 69.6574 144.726C69.6688 144.997 69.5767 145.262 69.3998 145.467C69.2228 145.673 68.9743 145.804 68.7047 145.832C67.6899 145.896 66.6722 145.896 65.6574 145.832H59.1232C58.4703 145.832 57.8525 145.701 57.7132 144.953C57.6602 144.704 57.6961 144.445 57.8146 144.22C57.9331 143.995 58.1267 143.819 58.3618 143.722C58.747 143.63 59.1451 143.606 59.5388 143.649H68.221C68.948 143.649 69.6361 143.858 69.6545 144.716C69.6955 146.609 72.627 146.616 72.5859 144.727Z" fill="#211715"/>
<path d="M90.9939 176.386C94.537 176.386 98.0807 176.388 101.625 176.391L121.778 176.401L145.54 176.414L167.319 176.424C171.947 176.424 176.576 176.425 181.204 176.429H182.084C184.347 176.429 184.35 172.911 182.084 172.911C177.912 172.911 173.741 172.911 169.569 172.911L148.447 172.901L124.629 172.888L103.707 172.877C99.6688 172.877 95.6307 172.876 91.5926 172.872H90.9953C88.7323 172.872 88.7279 176.39 90.9953 176.39L90.9939 176.386Z" fill="#211715"/>
<path d="M90.9956 78.2882H96.8013H109.232L126.624 78.2926L147.548 78.2985L170.359 78.3044L193.379 78.311L215.228 78.3168L234.226 78.322H248.793H257.345H258.335C260.598 78.322 260.602 74.8042 258.335 74.8042H251.473H238.215L220.226 74.8049L198.932 74.7991L175.979 74.7932L153.04 74.7866L131.507 74.7808L113.052 74.7756H99.2579H91.7094H90.9978C88.7347 74.7756 88.7303 78.2934 90.9978 78.2934L90.9956 78.2882Z" fill="#211715"/>
<path d="M232.426 176.387C241.062 176.387 249.697 176.43 258.332 176.43C260.595 176.43 260.599 172.912 258.332 172.912C249.697 172.912 241.062 172.87 232.426 172.869C230.162 172.869 230.159 176.387 232.426 176.387Z" fill="#211715"/>
<path d="M4.13521 155.219C5.28946 155.219 6.44299 155.235 7.59651 155.249L9.53567 155.273C9.87942 155.223 10.2304 155.266 10.5514 155.399C11.1062 155.766 10.9523 156.527 10.9523 157.158V170.591C10.9523 172.855 14.47 172.858 14.47 170.591V158.5C14.47 156.205 14.6166 153.711 12.3213 152.375C11.0153 151.612 9.49609 151.755 8.04283 151.737C6.74053 151.721 5.43824 151.703 4.13521 151.701C1.87213 151.701 1.86846 155.219 4.13521 155.219Z" fill="#211715"/>
<path d="M36.1224 98.0093C36.5372 96.4285 37.6614 95.4919 38.9967 94.6469C40.096 93.9522 41.1989 93.2743 42.3078 92.6015C45.2355 90.8265 48.1875 89.0925 51.1475 87.3725C57.6642 83.5856 64.222 79.8709 70.8212 76.2286C72.4118 75.2683 74.1551 74.5874 75.9754 74.2154C76.6299 74.0804 77.295 74.0027 77.963 73.9831C78.605 73.9758 79.2484 74.0029 79.8889 74.0462C80.1199 74.0462 80.3486 74.0007 80.562 73.9123C80.7754 73.8239 80.9693 73.6943 81.1326 73.531C81.296 73.3677 81.4255 73.1738 81.5139 72.9604C81.6023 72.747 81.6478 72.5183 81.6478 72.2873C81.6478 72.0563 81.6023 71.8276 81.5139 71.6142C81.4255 71.4008 81.296 71.2069 81.1326 71.0436C80.9693 70.8802 80.7754 70.7507 80.562 70.6623C80.3486 70.5739 80.1199 70.5284 79.8889 70.5284C76.7547 70.2934 73.614 70.8914 70.7853 72.2616C67.3365 73.9472 64.0195 75.9758 60.6777 77.8629C53.9771 81.6459 47.2949 85.4693 40.7123 89.4546C37.5368 91.3776 33.7501 93.1834 32.73 97.0763C32.1547 99.2676 35.5464 100.203 36.1224 98.0115V98.0093Z" fill="#211715"/>
<path fill-rule="evenodd" clip-rule="evenodd" d="M123.321 168.106L130.105 81.8533C135.273 81.8533 146.58 83.2101 150.457 88.6372L143.673 161.322C139.796 164.23 130.299 169.657 123.321 168.106ZM168.87 132.248C161.892 151.631 149.164 159.707 143.673 161.322V168.106C150.466 169.657 162.009 164.23 166.932 161.322V168.106C194.068 168.982 216.853 143.821 216.358 123.526C215.583 91.7385 185.023 81.2072 171.778 81.8533V88.6372C167.126 82.4347 155.625 81.5302 150.457 81.8533V88.6372C166.738 97.9409 170.076 113.189 169.71 119.65L171.778 88.6372C187.284 95.615 194.068 105.169 194.068 123.526C194.068 141.883 173.716 157.446 166.932 161.322L168.87 132.248Z" fill="#EDEDED"/>
<path fill-rule="evenodd" clip-rule="evenodd" d="M34.3613 161.455L35.669 144.829C36.6653 144.829 38.8448 145.09 39.592 146.136L38.2844 160.147C37.5371 160.707 35.7064 161.754 34.3613 161.455ZM43.1415 154.543C41.7964 158.279 39.343 159.836 38.2844 160.147V161.455C39.5938 161.754 41.8189 160.707 42.7678 160.147V161.455C47.9985 161.623 52.3906 156.774 52.2952 152.861C52.1458 146.734 46.255 144.704 43.7019 144.829V146.136C42.8052 144.941 40.5884 144.766 39.592 144.829V146.136C42.7305 147.93 43.3739 150.869 43.3034 152.114L43.7019 146.136C46.6909 147.481 47.9985 149.323 47.9985 152.861C47.9985 156.4 44.0755 159.4 42.7678 160.147L43.1415 154.543Z" fill="#00A69C"/>
</g>
<defs>
<clipPath id="clip0_1200_11794">
<rect width="269" height="269" fill="white" transform="translate(0 0.5)"/>
</clipPath>
</defs>
</svg>
