<svg width="253" height="254" viewBox="0 0 253 254" fill="none" xmlns="http://www.w3.org/2000/svg">
<g clip-path="url(#clip0_1200_11268)">
<path d="M91.1976 29.1927C91.3965 30.8717 91.7789 32.5237 92.3382 34.1192C93.1235 37.1368 94.2226 41.3228 91.9182 43.6044C91.4447 44.039 91.1294 44.6188 91.022 45.2525C90.8021 46.934 92.2779 47.2278 93.3253 47.8529C93.9869 48.2596 94.5388 48.8221 94.9329 49.4913C95.4916 51.0825 97.0185 54.5854 98.6177 56.2306C99.6422 57.3831 101.074 58.0934 102.611 58.2122C105.119 58.3787 108.483 57.4013 111.113 56.8716C112.629 56.6193 113.876 56.5085 115.245 57.0665C115.599 57.2115 115.935 57.3965 116.248 57.6178C117.615 58.5793 118.542 60.1569 119.378 61.6526C120.472 63.6087 121.722 65.6101 122.816 67.5662L122.916 67.7458C123.03 67.4002 123.148 67.0564 123.267 66.7138C124.729 62.4874 127.983 55.7851 130.637 50.9688C130.5 50.5597 130.483 50.1789 130.358 49.73C129.602 47.059 131.278 44.0528 132.312 41.5865C134.025 36.6336 134.419 31.3201 133.455 26.1689C131.403 15.9682 125.135 11.4787 120.64 10.075C114.408 8.06179 107.635 8.58236 101.784 11.5242C96.5617 14.0701 90.1287 19.662 91.197 29.1978" fill="white"/>
<path d="M132.119 48.3655C129.34 53.0379 125.015 61.648 123.267 66.7086C122.675 68.1869 122.298 69.7418 122.145 71.3265C122.137 72.7639 122.314 74.1964 122.672 75.5886L125.931 90.9715C127.278 96.7805 133.339 108.099 134.497 111.075C134.309 112.08 137.365 118.231 140.17 119.707C153.194 123.613 168.457 127.406 182.052 127.527C185.756 127.698 185.083 123.318 183.988 118.856C183.399 114.899 180.519 107.169 180.073 106.227L177.425 102.188C174.773 96.5049 174.088 94.2164 170.58 86.5241C163.507 71.0133 151.693 56.9523 132.119 48.3655Z" fill="white"/>
<path d="M133.638 36.0544C134.159 32.772 134.096 29.4232 133.451 26.1629C131.405 15.9644 125.135 11.475 120.639 10.073C114.407 8.05748 107.632 8.57811 101.781 11.5221C96.8241 13.9356 90.7741 19.0962 91.0889 27.7705C94.4896 27.4529 97.9913 27.1221 97.9913 27.1221C101.932 26.8869 104.957 28.0013 107.73 29.5089C110.332 30.9222 112.065 34.7116 113.938 34.5041C114.084 33.1848 114.709 31.9648 115.695 31.0751C116.025 30.8047 116.414 30.6146 116.83 30.5197C117.246 30.4247 117.679 30.4275 118.094 30.5279C119.332 30.8808 120.033 32.1998 120.32 33.4545C120.596 34.4969 120.661 35.584 120.512 36.652C120.362 37.72 120.001 38.7473 119.449 39.6738C122.12 42.0515 126.006 45.4419 130.303 46.9729C130.651 45.1089 131.624 43.2251 132.31 41.5844C132.907 39.7819 133.352 37.9319 133.638 36.0544Z" fill="#7A7473"/>
<path d="M119.482 41.516C122.474 44.1273 125.644 46.5664 129.352 48.0633C129.701 48.1571 130.073 48.1098 130.387 47.9315C130.701 47.7532 130.932 47.4583 131.03 47.1108C131.117 46.7624 131.067 46.3936 130.89 46.0812C130.712 45.7688 130.421 45.5367 130.077 45.4332C128.412 44.7132 126.83 43.8132 125.361 42.7492C123.989 41.7654 122.671 40.7099 121.411 39.5873C121.151 39.3394 120.806 39.2012 120.447 39.2012C120.087 39.2012 119.742 39.3394 119.482 39.5873C119.229 39.8447 119.088 40.191 119.088 40.5517C119.088 40.9124 119.229 41.2587 119.482 41.516Z" fill="#211715"/>
<path d="M97.9915 28.4868C101.189 28.3331 104.362 29.1135 107.124 30.7327C109.37 32.0187 110.497 35.063 113.084 35.7853C114.778 36.2581 115.5 33.6258 113.809 33.1547C113.456 33.0558 114.011 33.286 113.663 33.1087C113.539 33.0443 113.421 32.9702 113.309 32.887C113.309 32.887 112.983 32.6029 112.866 32.4892C112.379 32.0164 111.937 31.4999 111.483 30.9964C110.493 29.8207 109.297 28.8348 107.954 28.0867C104.904 26.4257 101.461 25.6223 97.9915 25.7619C96.2452 25.8539 96.2344 28.5823 97.9915 28.4896V28.4868Z" fill="#211715"/>
<path d="M115.595 33.525C115.925 32.6504 116.746 31.6343 117.65 31.8201C117.836 31.8714 118.009 31.9616 118.158 32.0846C118.307 32.2076 118.428 32.3607 118.514 32.5339C118.801 33.0426 118.994 33.5992 119.082 34.1768C119.57 36.6739 118.677 38.8271 116.966 40.7502C116.718 41.0099 116.58 41.3553 116.58 41.7145C116.58 42.0738 116.718 42.4192 116.966 42.6789C117.224 42.9317 117.57 43.0733 117.931 43.0733C118.291 43.0733 118.638 42.9317 118.895 42.6789C120.204 41.3119 121.158 39.6456 121.675 37.8252C122.101 36.0596 122.029 34.2102 121.466 32.4833C120.859 30.6915 119.471 29.0452 117.427 29.0736C115.188 29.1032 113.698 30.8552 112.965 32.7964C112.871 33.1452 112.919 33.5166 113.097 33.8305C113.275 34.1444 113.57 34.3757 113.917 34.4746C114.265 34.5629 114.634 34.5134 114.947 34.3365C115.259 34.1596 115.492 33.8689 115.595 33.525Z" fill="#211715"/>
<path d="M89.8348 29.1932C90.1026 31.0453 90.5157 32.8734 91.0703 34.6607C91.4623 35.9574 91.7362 37.2869 91.8886 38.633C91.9989 39.8622 92.0153 41.3142 91.2226 42.3462C90.7601 42.8346 90.3545 43.3737 90.0133 43.9533C89.6264 44.7447 89.5406 45.6498 89.7717 46.4998C90.194 47.9131 91.4993 48.3535 92.6382 49.0298C93.76 49.6958 93.9702 50.8279 94.4732 51.9735C95.716 54.8019 97.3748 57.8365 100.378 59.0708C102.06 59.7624 103.869 59.6346 105.631 59.3817C107.602 59.0975 109.528 58.5861 111.477 58.1854C111.65 58.1378 111.811 58.0567 111.952 57.9466C112.094 57.8365 112.212 57.6997 112.3 57.5439C112.389 57.3881 112.446 57.2165 112.468 57.0387C112.49 56.8609 112.477 56.6806 112.429 56.5079C112.382 56.3352 112.301 56.1736 112.19 56.0322C112.08 55.8909 111.944 55.7726 111.788 55.6842C111.632 55.5958 111.46 55.5389 111.283 55.5168C111.105 55.4947 110.924 55.5078 110.752 55.5554C109.157 55.8816 107.577 56.2862 105.975 56.5783C104.693 56.8108 103.24 57.0636 101.955 56.7357C99.2934 56.0538 97.9261 53.0584 96.9066 50.7739C96.3866 49.6089 96.0644 48.4717 95.1284 47.5415C94.6388 47.0697 94.0776 46.6784 93.4656 46.3822C93.0462 46.2321 92.6636 45.9944 92.3432 45.6849C92.4569 45.8355 92.3523 45.5843 92.3677 45.4576C92.4093 45.2085 92.5172 44.9753 92.6802 44.7824C93.1239 44.3146 93.5201 43.8039 93.8628 43.2577C94.4748 42.0119 94.7491 40.6273 94.6584 39.2422C94.5192 35.7683 92.9689 32.6137 92.5649 29.1966C92.5542 28.8383 92.407 28.4976 92.1535 28.2441C91.9 27.9906 91.5593 27.8435 91.201 27.8328C90.8399 27.835 90.4943 27.9794 90.239 28.2347C89.9837 28.49 89.8393 28.8356 89.8371 29.1966L89.8348 29.1932Z" fill="#211715"/>
<path d="M92.5598 29.1926C92.2097 26.4875 92.5892 23.7379 93.6588 21.2287C94.6302 19.1397 96.0346 17.281 97.7789 15.776C100.567 13.4196 103.866 11.7456 107.415 10.8869C110.963 10.0282 114.662 10.0084 118.22 10.8291C118.984 11.0041 119.746 11.2075 120.493 11.4542C120.676 11.5148 120.857 11.5788 121.038 11.6463C121.112 11.6741 121.185 11.7031 121.259 11.7315C121.333 11.7599 121.409 11.7912 121.483 11.8219C121.364 11.7707 121.35 11.765 121.44 11.8037C123.129 12.5364 124.681 13.5526 126.028 14.8082C129.94 18.4498 132.052 23.8059 132.516 29.0665C132.808 32.9898 132.35 36.9329 131.166 40.6845C130.645 42.4303 129.66 44.0101 129.177 45.7797C128.7 47.605 128.75 49.5279 129.32 51.3262C129.801 53.0112 132.434 52.2923 131.95 50.6011C131.453 49.0451 131.475 47.3694 132.015 45.8275C132.548 44.2295 133.391 42.7559 133.88 41.1442C135.003 37.5202 135.484 33.7278 135.301 29.9382C134.96 23.9343 132.801 17.7769 128.527 13.4398C120.379 5.17066 105.955 6.03104 97.1492 12.7874C94.8078 14.5247 92.8898 16.7694 91.5391 19.3533C90.0374 22.4019 89.4438 25.8179 89.8292 29.1943C89.8393 29.5529 89.9863 29.8939 90.2399 30.1475C90.4935 30.4011 90.8345 30.5481 91.193 30.5582C91.5541 30.556 91.8997 30.4116 92.155 30.1563C92.4103 29.901 92.5547 29.5554 92.5569 29.1943L92.5598 29.1926Z" fill="#211715"/>
<path d="M122.181 72.7437C122.151 72.4237 122.134 72.1027 122.134 71.781C120.847 74.8763 119.927 78.1116 119.392 81.4208C118.987 84.1111 118.5 86.8343 117.296 89.274C116.248 91.3965 114.699 93.2218 113.204 95.0551C109.79 99.2377 106.579 103.576 103.571 108.069C106.03 110.379 107.697 111.722 109.766 114.386C109.829 114.322 109.891 114.259 109.954 114.196L113.511 110.565C115.614 105.416 120.11 100.475 123.982 95.7325C124.772 94.7664 125.578 93.8004 126.312 92.7894L122.669 75.5908C122.451 74.652 122.289 73.7013 122.181 72.7437Z" fill="white"/>
<path d="M102.062 109.179C102.508 108.74 103.01 108.362 103.555 108.054C106.282 110.619 108.037 111.99 110.438 115.281C109.889 115.786 109.243 116.175 108.54 116.425C106.856 116.97 105.041 116.338 103.271 116.302C101.367 116.316 99.5097 116.889 97.9292 117.95C96.18 117.041 94.1609 115.976 92.6066 115.848C91.5799 115.769 90.5506 115.965 89.6248 116.416C89.4475 113.71 91.7593 112.949 93.7443 112.903C95.1815 112.868 96.6721 113.078 98.0201 112.577C99.6784 111.957 100.766 110.403 102.062 109.179Z" fill="white"/>
<path d="M120.817 71.4229C119.817 73.8805 119.024 76.4177 118.447 79.0078C117.908 81.5651 117.689 84.173 116.88 86.6728C116.08 89.1455 114.587 91.2123 112.959 93.2081C111.223 95.3381 109.512 97.4845 107.86 99.6798C105.965 102.196 104.142 104.763 102.39 107.381C102.239 107.642 102.179 107.945 102.217 108.243C102.256 108.542 102.391 108.82 102.603 109.034C104.766 111.061 106.964 113.007 108.797 115.351C109.054 115.605 109.401 115.747 109.762 115.747C110.123 115.747 110.469 115.605 110.726 115.351C110.974 115.091 111.112 114.745 111.112 114.386C111.112 114.027 110.974 113.682 110.726 113.422C108.892 111.078 106.694 109.133 104.532 107.105L104.746 108.758C107.855 104.121 111.182 99.6462 114.727 95.3341C116.44 93.2377 118.056 91.1225 119.076 88.5937C120.075 86.1137 120.392 83.4899 120.854 80.8786C121.423 77.8894 122.292 74.9649 123.446 72.1492C123.539 71.8004 123.491 71.4288 123.313 71.1148C123.135 70.8007 122.84 70.5695 122.493 70.471C122.144 70.3835 121.775 70.4337 121.463 70.6112C121.15 70.7887 120.918 71.0798 120.815 71.424L120.817 71.4229Z" fill="#211715"/>
<path d="M103.249 106.688C102.072 107.307 101.025 108.146 100.165 109.16C99.3416 110.028 98.4903 111.035 97.2952 111.373C95.7517 111.806 94.0673 111.416 92.4852 111.657C91.745 111.738 91.0319 111.982 90.3964 112.37C89.7608 112.758 89.2185 113.281 88.8078 113.903C87.8804 115.399 90.2393 116.77 91.1634 115.28C91.7317 114.367 93.0256 114.268 93.9963 114.26C95.7011 114.245 97.3742 114.373 98.9688 113.644C101.248 112.598 102.368 110.075 104.625 109.044C104.936 108.86 105.161 108.561 105.253 108.212C105.344 107.862 105.295 107.491 105.115 107.178C104.926 106.872 104.627 106.65 104.28 106.559C103.932 106.468 103.563 106.515 103.249 106.689V106.688Z" fill="#211715"/>
<path d="M126.943 177.332C127.41 179.678 126.545 182.211 125.131 184.237C126.365 185.196 128.732 185.075 130.262 184.837C132.689 184.459 137.614 183.71 138.717 179.33C138.158 177.915 137.666 176.476 137.239 175.014" fill="white"/>
<path d="M124.586 185.518C126.144 186.488 128.162 186.473 129.922 186.25C131.15 186.11 132.366 185.878 133.56 185.556C136.565 184.704 139.195 182.838 140.033 179.692C140.485 177.994 137.854 177.27 137.402 178.967C136.785 181.286 134.856 182.372 132.697 182.964C131.777 183.208 130.843 183.394 129.9 183.521C128.702 183.692 127.071 183.852 125.964 183.163C124.469 182.232 123.099 184.591 124.587 185.518H124.586Z" fill="#211715"/>
<path d="M179.381 127.613C181.441 133.387 176.907 139.831 171.21 142.094C165.513 144.357 159.119 143.579 153.043 142.764C144.589 141.627 138.643 142.974 130.19 141.84C132.527 148.037 134.031 153.262 134.769 155.772C136.483 161.956 137.774 168.25 138.633 174.609C136.107 175.619 128.882 178.064 124.665 178.377C119.001 166.168 113.363 152.055 107.696 139.839C105.835 135.829 104.129 130.633 107.142 127.394C108.804 125.608 111.392 125.106 113.797 124.699L141.211 120.057" fill="#00A69C"/>
<path d="M178.065 127.976C179.092 130.959 178.187 134.025 176.349 136.492C174.263 139.175 171.279 141.014 167.945 141.672C163.986 142.564 159.839 142.236 155.846 141.76C153.751 141.51 151.666 141.192 149.559 141.051C147.588 140.918 145.613 140.896 143.638 140.912C139.139 140.95 134.664 141.064 130.19 140.476C129.98 140.477 129.774 140.526 129.586 140.619C129.398 140.713 129.234 140.848 129.107 141.015C128.98 141.182 128.893 141.376 128.853 141.581C128.812 141.787 128.82 142 128.874 142.202C131.774 149.808 134.065 157.633 135.728 165.601C136.337 168.585 136.865 171.59 137.27 174.609L138.272 173.294C136.229 174.107 134.128 174.79 132.021 175.411C129.629 176.191 127.165 176.728 124.666 177.014L125.844 177.689C120.818 166.844 116.323 155.764 111.461 144.846C110.344 142.341 109.079 139.877 108.09 137.319C107.305 135.289 106.523 132.893 106.971 130.693C107.439 128.39 109.228 127.186 111.384 126.591C114.193 125.817 117.167 125.508 120.036 125.022L141.574 121.375C141.921 121.276 142.216 121.044 142.394 120.731C142.572 120.417 142.62 120.045 142.527 119.696C142.424 119.352 142.191 119.061 141.879 118.884C141.566 118.706 141.197 118.656 140.849 118.744L120.988 122.107C117.869 122.636 114.705 123.053 111.612 123.728C109.038 124.29 106.477 125.439 105.136 127.836C102.448 132.643 105.556 138.4 107.571 142.825C110.149 148.487 112.599 154.205 115.054 159.922C117.805 166.329 120.553 172.739 123.485 179.066C123.602 179.274 123.773 179.447 123.98 179.566C124.188 179.685 124.423 179.746 124.662 179.741C127.339 179.463 129.98 178.912 132.545 178.098C134.72 177.464 136.887 176.762 138.993 175.924C139.494 175.725 140.078 175.234 139.995 174.609C138.858 166.236 136.995 157.979 134.425 149.929C133.526 147.085 132.552 144.267 131.506 141.477L130.191 143.203C134.424 143.76 138.664 143.698 142.924 143.647C145.008 143.622 147.093 143.628 149.175 143.754C151.413 143.889 153.624 144.222 155.848 144.488C163.743 145.429 172.876 145.289 178.246 138.47C180.73 135.316 182.046 131.173 180.698 127.251C180.129 125.603 177.494 126.309 178.067 127.976H178.065Z" fill="#211715"/>
<path d="M113.312 136.127L122.896 139.169C123.069 139.216 123.249 139.229 123.427 139.207C123.605 139.185 123.776 139.128 123.932 139.04C124.088 138.951 124.225 138.833 124.335 138.692C124.445 138.551 124.526 138.389 124.574 138.216C124.621 138.043 124.635 137.863 124.612 137.685C124.59 137.508 124.533 137.336 124.445 137.18C124.357 137.024 124.238 136.888 124.097 136.777C123.956 136.667 123.794 136.586 123.621 136.539L114.037 133.497C113.688 133.4 113.316 133.447 113.001 133.625C112.687 133.804 112.456 134.1 112.36 134.449C112.263 134.798 112.31 135.17 112.488 135.485C112.667 135.8 112.963 136.03 113.312 136.127Z" fill="#211715"/>
<path d="M139.086 64.5947C135.892 65.8711 133.63 68.8432 132.362 72.0393C131.093 75.2353 130.684 78.695 130.173 82.0979C129.768 84.7882 129.28 87.5114 128.076 89.951C127.028 92.0736 125.479 93.8989 123.985 95.7322C120.571 99.9148 116.555 105.345 114.352 108.746C116.555 111.155 119.333 113.934 122.111 116.838C123.902 116.94 130.44 113.496 134.038 110.682C135.576 109.479 137.736 107.817 138.831 106.2C144.495 97.8331 149.474 89.0232 153.722 79.856" fill="white"/>
<path d="M138.722 63.2779C135.713 64.5806 133.272 66.9219 131.846 69.8746C130.129 73.2417 129.552 76.9878 129.005 80.6856C128.473 84.2965 127.912 87.8989 125.883 91.0148C124.879 92.4667 123.801 93.8658 122.653 95.2065C121.554 96.5632 120.477 97.9361 119.421 99.3254C117.247 102.167 115.115 105.054 113.165 108.054C113.017 108.316 112.957 108.618 112.996 108.916C113.034 109.214 113.168 109.492 113.378 109.707C114.878 111.343 116.426 112.934 117.972 114.525C118.835 115.413 119.696 116.303 120.556 117.193C121.005 117.661 121.4 118.169 122.102 118.199C122.388 118.201 122.674 118.172 122.954 118.113C124.263 117.812 125.527 117.339 126.712 116.708C128.312 115.944 129.868 115.092 131.372 114.155C132.89 113.206 134.352 112.169 135.751 111.051C137.436 109.825 138.921 108.345 140.152 106.665C142.786 102.78 145.259 98.7827 147.586 94.707C150.222 90.0913 152.659 85.37 154.896 80.543C155.069 80.2283 155.114 79.8596 155.023 79.5126C154.932 79.1656 154.711 78.8667 154.406 78.6773C154.093 78.4977 153.722 78.4483 153.373 78.5399C153.024 78.6314 152.725 78.8565 152.541 79.1666C149.371 85.9983 145.797 92.6346 141.836 99.0401C140.857 100.621 139.855 102.188 138.83 103.741C138.372 104.434 137.936 105.167 137.42 105.819C136.852 106.503 136.223 107.136 135.54 107.708C133.387 109.581 131.053 111.236 128.573 112.648C127.241 113.428 125.866 114.131 124.454 114.754C123.971 114.963 123.478 115.145 122.976 115.3C122.777 115.357 122.572 115.398 122.373 115.456C122.271 115.486 122.048 115.477 122.411 115.46C122.307 115.465 122.207 115.474 122.103 115.471L123.069 115.869C120.485 113.17 117.835 110.531 115.31 107.776L115.523 109.429C117.164 106.904 118.941 104.465 120.751 102.058C122.797 99.3362 125.005 96.7465 127.067 94.0403C128.181 92.6144 129.103 91.0476 129.808 89.3804C130.456 87.7159 130.923 85.9863 131.201 84.2215C131.844 80.5561 132.129 76.8043 133.353 73.265C134.394 70.2531 136.391 67.1673 139.445 65.9045C139.788 65.7987 140.077 65.5662 140.254 65.2545C140.431 64.9428 140.482 64.5753 140.398 64.227C140.3 63.8793 140.069 63.5843 139.755 63.4059C139.441 63.2275 139.069 63.1801 138.72 63.274L138.722 63.2779Z" fill="#211715"/>
<path d="M130.94 47.6778C128.299 52.1643 125.934 56.8081 123.86 61.5832C122.707 64.0104 121.781 66.5393 121.095 69.1374C120.294 72.6244 121.39 76.1137 122.112 79.5223L124.613 91.3341C124.976 93.0503 127.606 92.324 127.243 90.6089L125.09 80.4452C124.731 78.7513 124.372 77.0572 124.013 75.363C123.685 73.8104 123.339 72.2334 123.57 70.64C123.927 68.1736 125.028 65.7044 126.011 63.4261C127.05 61.0172 128.182 58.6486 129.364 56.3067C130.602 53.8522 131.892 51.4194 133.294 49.0542C134.192 47.5409 131.835 46.1673 130.939 47.6778H130.94Z" fill="#211715"/>
<path d="M133.122 111.152C133.196 111.991 133.436 112.807 133.826 113.553C134.25 114.519 134.744 115.452 135.304 116.345C135.954 117.419 136.711 118.424 137.563 119.346C138.386 120.26 139.449 120.926 140.631 121.269C147.071 123.183 153.57 124.92 160.151 126.273C166.713 127.691 173.383 128.553 180.09 128.849C181.404 128.894 182.866 129.085 184.092 128.505C184.574 128.259 184.996 127.91 185.328 127.483C185.66 127.055 185.894 126.56 186.013 126.032C186.67 123.491 185.745 120.842 185.286 118.357C184.78 115.818 184.096 113.318 183.237 110.876C182.675 109.062 182.013 107.28 181.255 105.539C181.07 105.229 180.771 105.004 180.422 104.912C180.073 104.821 179.701 104.87 179.388 105.05C179.082 105.238 178.861 105.537 178.769 105.885C178.678 106.232 178.725 106.602 178.899 106.916C178.922 106.966 179.036 107.225 178.93 106.98C178.816 106.72 178.976 107.097 179.001 107.159C179.126 107.472 179.246 107.784 179.365 108.102C179.686 108.955 179.995 109.812 180.291 110.675C181.021 112.785 181.712 114.917 182.24 117.086C182.483 118.079 182.653 119.085 182.882 120.08C183.173 121.222 183.37 122.385 183.47 123.559C183.488 123.852 183.497 124.146 183.489 124.439C183.485 124.553 183.46 124.95 183.47 124.874C183.446 125.237 183.329 125.589 183.129 125.894C183.041 125.998 182.921 126.071 182.788 126.102C182.222 126.186 181.648 126.202 181.078 126.149C168.689 125.882 156.437 122.971 144.58 119.578C143.781 119.351 142.983 119.119 142.186 118.883C141.534 118.763 140.907 118.532 140.332 118.201C140.139 118.06 140.449 118.297 140.255 118.14C140.132 118.041 140.016 117.934 139.902 117.827C139.699 117.637 139.507 117.438 139.32 117.232C138.939 116.808 138.586 116.36 138.263 115.89C137.596 114.927 137.005 113.914 136.497 112.858C136.388 112.635 136.282 112.408 136.186 112.179C136.268 112.375 136.164 112.123 136.145 112.071C136.108 111.976 136.072 111.882 136.038 111.787C135.975 111.608 135.927 111.428 135.872 111.247C135.746 110.83 135.857 111.435 135.854 111.156C135.837 109.402 133.11 109.398 133.126 111.156L133.122 111.152Z" fill="#211715"/>
<path d="M131.43 49.545C140.708 53.5535 149.066 59.4211 155.989 66.7857C159.068 70.1164 161.827 73.7296 164.229 77.5774C166.685 81.6008 168.85 85.7951 170.707 90.128C172.583 94.3651 174.278 98.6625 176.241 102.876C176.425 103.186 176.724 103.412 177.074 103.503C177.423 103.595 177.794 103.545 178.107 103.366C178.413 103.178 178.635 102.878 178.726 102.531C178.818 102.183 178.771 101.814 178.596 101.499C174.865 93.4911 171.929 85.0504 167.305 77.3757C162.358 69.1341 155.871 61.9215 148.198 56.1315C143.426 52.5701 138.261 49.5701 132.803 47.1906C132.488 47.0192 132.119 46.9744 131.773 47.0653C131.426 47.1562 131.127 47.3761 130.937 47.6799C130.757 47.9928 130.707 48.364 130.799 48.7132C130.89 49.0623 131.116 49.3614 131.426 49.5456L131.43 49.545Z" fill="#211715"/>
<path d="M152.743 156.933C153.18 157.029 153.617 157.129 154.05 157.235C154.226 157.291 154.414 157.299 154.594 157.258C154.774 157.251 154.949 157.195 155.101 157.097C155.256 157.014 155.388 156.893 155.484 156.745C155.604 156.614 155.688 156.455 155.727 156.282L155.776 155.919C155.777 155.677 155.712 155.439 155.59 155.231L155.377 154.955C155.21 154.788 155.003 154.667 154.775 154.604C154.34 154.499 153.904 154.398 153.468 154.303C153.292 154.246 153.104 154.238 152.924 154.278C152.744 154.286 152.569 154.342 152.417 154.44C152.121 154.632 151.9 154.92 151.792 155.255L151.743 155.618C151.743 155.86 151.808 156.097 151.93 156.306L152.143 156.582C152.31 156.749 152.517 156.87 152.744 156.933H152.743Z" fill="#211715"/>
<path d="M111.473 58.1847C112.614 57.9983 113.829 57.8807 114.904 58.4018C115.919 58.9765 116.754 59.8207 117.318 60.8409C118.041 61.9774 118.667 63.1759 119.35 64.3364C120.117 65.6383 120.895 66.9329 121.635 68.2502C122.494 69.7811 124.852 68.4076 123.99 66.8732C123.178 65.4269 122.319 64.0085 121.481 62.5775C120.765 61.2345 119.98 59.9292 119.13 58.6666C118.26 57.3761 117.037 56.3633 115.607 55.749C114.03 55.1239 112.382 55.2881 110.75 55.5547C110.403 55.6531 110.108 55.8843 109.93 56.1982C109.752 56.5121 109.704 56.8836 109.798 57.2322C109.901 57.5763 110.133 57.8674 110.446 58.0448C110.758 58.2221 111.127 58.2723 111.475 58.1847H111.473Z" fill="#211715"/>
<path d="M96.5353 52.7076C97.4933 52.5647 98.4135 52.2332 99.2426 51.7324C99.8345 51.383 100.341 50.9055 100.724 50.335C100.904 50.022 100.953 49.651 100.861 49.302C100.77 48.953 100.545 48.654 100.235 48.4693C99.9207 48.2944 99.5511 48.2476 99.2033 48.3388C98.8555 48.43 98.5564 48.6521 98.3686 48.9586C98.3379 49.0069 98.3044 49.053 98.2697 49.0984L98.4828 48.8223C98.3246 49.0182 98.1431 49.1941 97.9424 49.3462L98.2185 49.1331C97.8825 49.3864 97.5159 49.5965 97.1274 49.7582L97.4531 49.6207C96.9255 49.8382 96.374 49.9921 95.8101 50.0793C95.4672 50.1734 95.1746 50.3977 94.9947 50.7044C94.8122 51.0229 94.763 51.4006 94.8577 51.7552C94.9531 52.0973 95.1771 52.3893 95.4828 52.5701L95.809 52.7076C96.0463 52.7731 96.2969 52.7731 96.5341 52.7076H96.5353Z" fill="#211715"/>
<path d="M96.4419 37.8289C96.3851 38.7756 97.025 40.7754 98.6582 40.5771C100.761 40.0719 100.306 37.5805 99.33 36.5872C98.5315 35.7734 96.7346 35.7774 96.4419 37.8289Z" fill="#211715"/>
<path d="M120.614 3.22391C119.551 3.3046 118.618 3.37393 117.881 3.42565L113.132 4.31842C109.777 4.94922 106.362 5.59991 103.344 7.19679C100.338 8.78799 97.8846 11.2316 95.5648 13.7167C91.5209 18.0488 87.6895 22.324 86.7382 28.1103C86.6599 28.6476 86.7797 29.195 87.0753 29.6505C87.3709 30.106 87.8221 30.4384 88.3448 30.5857C88.7914 30.6828 89.2471 30.732 89.7041 30.7323C92.9433 30.7982 96.1826 30.7954 99.4218 30.7238C115.249 30.9113 117.505 28.0364 131.491 21.1198C133.048 20.3497 134.193 16.9349 133.858 14.3322C133.638 12.6273 138.191 6.61543 139.295 3.7956C139.369 3.60879 139.395 3.40677 139.373 3.20726C139.35 3.00775 139.279 2.81682 139.165 2.6512C139.052 2.48558 138.899 2.35032 138.721 2.25727C138.544 2.16422 138.346 2.11621 138.145 2.11746C134.759 2.13337 126.013 2.81645 120.614 3.22391Z" fill="#00A69C"/>
<path d="M138.175 66.5686C138.015 66.6959 138.413 66.4112 138.459 66.3799C138.634 66.2691 138.813 66.1651 138.994 66.0668C139.351 65.8726 139.719 65.698 140.095 65.544C141.058 65.1575 142.05 64.8505 143.063 64.6262C143.964 64.4089 144.885 64.2885 145.812 64.267C146.598 64.2565 147.38 64.4022 148.11 64.6955C149.748 65.2479 150.553 66.1918 151.33 67.7961C152.519 70.2579 153.177 72.9402 154.344 75.4145C155.642 78.1633 157.629 80.5137 159.714 82.6965C160.929 83.9683 162.856 82.0379 161.643 80.7678C159.642 78.8067 157.972 76.534 156.699 74.0381C155.476 71.4433 154.824 68.6121 153.503 66.0577C152.606 64.2253 151.02 62.8222 149.091 62.1547C147.066 61.4745 144.89 61.3838 142.816 61.8933C140.51 62.357 138.103 63.1629 136.243 64.6398C135.989 64.8966 135.847 65.2431 135.847 65.6042C135.847 65.9653 135.989 66.3118 136.243 66.5686C136.503 66.8166 136.848 66.9549 137.207 66.9549C137.566 66.9549 137.912 66.8166 138.172 66.5686H138.175Z" fill="#211715"/>
<path d="M151.618 84.9347C154.773 87.3965 159.102 87.9466 162.988 87.9427C164.743 87.9427 164.746 85.2149 162.988 85.2149C161.089 85.2447 159.193 85.0422 157.343 84.6119C156.941 84.5131 156.543 84.3994 156.15 84.271C155.962 84.2102 155.775 84.1454 155.591 84.0766C155.516 84.0488 155.109 83.8857 155.255 83.9488C154.907 83.7977 154.568 83.627 154.239 83.4373C154.093 83.3539 153.95 83.2662 153.81 83.1742C153.735 83.1253 153.344 82.8412 153.55 83.0037C153.289 82.7585 152.944 82.6221 152.585 82.6221C152.227 82.6221 151.882 82.7585 151.621 83.0037C151.368 83.2607 151.226 83.6071 151.226 83.9681C151.226 84.329 151.368 84.6754 151.621 84.9324L151.618 84.9347Z" fill="#211715"/>
<path d="M109.93 55.5624C111.464 47.3961 111.835 38.0518 109.418 30.2379C110.813 30.0486 112.195 29.7714 113.555 29.4082C114.97 37.7825 114.369 53.2427 111.356 58.2271L109.305 58.5681C109.528 57.5883 109.737 56.5864 109.93 55.5624Z" fill="#211715"/>
<path d="M120.614 3.22391C119.551 3.3046 118.618 3.37393 117.881 3.42565L113.132 4.31842C109.777 4.94922 106.362 5.59991 103.344 7.19679C100.338 8.78799 97.8846 11.2316 95.5648 13.7167C91.5209 18.0488 87.6895 22.324 86.7382 28.1103C86.6599 28.6476 86.7797 29.195 87.0753 29.6505C87.3709 30.106 87.8221 30.4384 88.3448 30.5857C88.7914 30.6828 89.2471 30.732 89.7041 30.7323C92.9433 30.7982 96.1826 30.7954 99.4218 30.7238C115.249 30.9113 117.505 28.0364 131.491 21.1198C133.048 20.3497 134.193 16.9349 133.858 14.3322C133.638 12.6273 138.191 6.61543 139.295 3.7956C139.369 3.60879 139.395 3.40677 139.373 3.20726C139.35 3.00775 139.279 2.81682 139.165 2.6512C139.052 2.48558 138.899 2.35032 138.721 2.25727C138.544 2.16422 138.346 2.11621 138.145 2.11746C134.759 2.13337 126.013 2.81645 120.614 3.22391Z" fill="#00A69C"/>
<path d="M112.236 29.7721C112.805 33.6116 113.027 37.4944 112.9 41.3737C112.893 45.3472 112.487 49.3101 111.688 53.2025C111.503 54.0537 111.271 54.8941 110.994 55.72C110.93 55.9087 110.861 56.0962 110.791 56.2826C110.76 56.3628 110.729 56.4418 110.697 56.5207C110.769 56.3417 110.706 56.502 110.665 56.5918C110.518 56.9165 110.355 57.2333 110.175 57.5408L110.989 56.9157L108.938 57.2567L110.616 58.9343C112.76 49.5342 113.585 39.2233 110.73 29.8801C110.218 28.2059 107.584 28.9203 108.099 30.6052C110.813 39.4864 110.024 49.2723 107.985 58.2091C107.928 58.4409 107.931 58.6836 107.995 58.9138C108.058 59.1439 108.181 59.3537 108.35 59.5226C108.519 59.6914 108.728 59.8137 108.958 59.8776C109.189 59.9414 109.431 59.9445 109.663 59.8867C110.307 59.7799 110.976 59.7162 111.611 59.5633C112.572 59.3303 112.94 58.1892 113.28 57.3635C113.973 55.5602 114.462 53.6843 114.735 51.7716C115.516 46.8197 115.804 41.8026 115.594 36.7939C115.52 34.1985 115.277 31.6108 114.867 29.047C114.768 28.6998 114.537 28.4053 114.223 28.2271C113.909 28.0489 113.537 28.0013 113.189 28.0946C112.845 28.1978 112.553 28.4298 112.376 28.7423C112.199 29.0548 112.149 29.4237 112.236 29.7721Z" fill="#211715"/>
<path d="M120.615 1.86065C119.224 1.93344 117.839 2.08332 116.466 2.3096C115.067 2.57252 113.668 2.83545 112.269 3.09838C109.409 3.55314 106.609 4.32863 103.923 5.41016C99.0271 7.54578 95.2673 11.8318 91.8394 15.7939C90.1115 17.7084 88.6129 19.8179 87.3738 22.0797C86.7801 23.2109 86.293 24.3951 85.919 25.6167C85.561 26.8033 85.1416 28.1825 85.4877 29.4128C86.3623 32.523 89.9515 32.1139 92.4815 32.1343C95.4622 32.1588 98.4429 32.1099 101.424 32.0929C105.613 32.069 109.866 31.8138 113.926 30.7176C117.315 29.7038 120.589 28.337 123.693 26.6396C125.725 25.5991 127.744 24.5369 129.779 23.501C130.814 22.9759 132.032 22.5548 132.909 21.7779C133.703 20.9941 134.294 20.0291 134.631 18.966C135.041 17.8357 135.26 16.6449 135.278 15.4427C135.322 15.014 135.301 14.5812 135.215 14.1589C135.242 14.2379 135.14 14.4124 135.23 14.1072C135.275 13.9572 135.317 13.8094 135.368 13.6622C135.461 13.4085 135.572 13.1616 135.7 12.9235C135.897 12.5257 136.109 12.1387 136.325 11.7534C136.805 10.9009 137.315 10.0678 137.824 9.23302C138.857 7.69223 139.758 6.06726 140.519 4.37531C140.76 3.80061 140.789 3.15902 140.602 2.56458C140.415 1.97013 140.023 1.46136 139.496 1.1287C138.697 0.630315 137.7 0.751359 136.803 0.782047C132.448 0.929801 128.097 1.2935 123.753 1.6197L120.611 1.85724C120.252 1.8659 119.91 2.01237 119.656 2.2663C119.402 2.52022 119.256 2.86213 119.247 3.22113C119.25 3.58198 119.395 3.92725 119.65 4.18242C119.905 4.43759 120.25 4.58219 120.611 4.58501C124.804 4.26848 128.997 3.9383 133.195 3.68826C134.118 3.63143 135.04 3.58256 135.963 3.54221C136.338 3.5263 136.712 3.51152 137.086 3.50072C137.304 3.4939 137.903 3.59335 138.088 3.48083C138.115 3.46435 138.165 3.46492 138.097 3.48538C137.753 3.58767 138.338 2.94494 137.978 3.43253C137.969 3.44503 137.9 3.62916 137.956 3.48936C138.02 3.33251 137.914 3.57971 137.899 3.61324C137.809 3.79907 137.72 3.98604 137.626 4.17016C137.251 4.89757 136.835 5.60338 136.415 6.30521C135.477 7.8697 134.482 9.40407 133.621 11.0135C133.248 11.6778 132.935 12.3738 132.685 13.0934C132.52 13.7605 132.475 14.4517 132.551 15.1347C132.563 16.1276 132.4 17.1149 132.069 18.0511C131.932 18.4508 131.751 18.8339 131.529 19.1933C131.472 19.2871 131.317 19.5082 131.302 19.5269C131.236 19.6053 131.165 19.6797 131.09 19.7497C130.779 20.0441 131.166 19.7207 130.977 19.8435C129.942 20.4364 128.878 20.9757 127.788 21.4591C126.806 21.9603 125.826 22.4659 124.848 22.9759C121.836 24.5386 118.786 26.1861 115.714 27.2948C112.559 28.3973 109.264 29.0459 105.926 29.2213C103.573 29.3736 101.223 29.3259 98.8679 29.3725C95.9992 29.4289 93.13 29.4314 90.2601 29.3799C89.5293 29.3668 88.2921 29.5503 88.095 28.5979C88.0708 28.1688 88.1345 27.7394 88.2819 27.3357C88.4216 26.7462 88.5923 26.1644 88.7934 25.5928C89.5874 23.4931 90.7005 21.5283 92.0934 19.7679C93.5595 17.9026 95.1231 16.116 96.7778 14.4158C98.3958 12.592 100.204 10.9464 102.172 9.50693C106.565 6.48422 112.072 5.90116 117.188 4.94019C118.322 4.75979 119.466 4.64236 120.613 4.58842C120.972 4.5799 121.314 4.43348 121.568 4.17952C121.822 3.92557 121.969 3.58358 121.977 3.22454C121.974 2.86388 121.83 2.51878 121.575 2.26364C121.32 2.0085 120.975 1.86377 120.615 1.86065Z" fill="#211715"/>
<path d="M99.8917 20.1502C100.99 18.9058 102.201 17.7659 103.51 16.7451C103.677 16.609 103.846 16.4744 104.015 16.341C104.046 16.3171 104.321 16.1012 104.17 16.2188C104.02 16.3365 104.335 16.0932 104.364 16.0711C104.68 15.8313 105.001 15.5966 105.325 15.367C105.863 14.9779 106.423 14.6208 107.002 14.2975C107.312 14.1126 107.537 13.8135 107.628 13.4644C107.72 13.1154 107.671 12.7443 107.491 12.4312C107.304 12.1246 107.005 11.9024 106.657 11.8112C106.309 11.72 105.94 11.7668 105.626 11.9419C104.223 12.7553 102.898 13.6946 101.665 14.7481C100.325 15.7872 99.0854 16.9502 97.9629 18.2215C97.7106 18.4779 97.5698 18.8237 97.5713 19.1835C97.5728 19.5433 97.7163 19.888 97.9708 20.1424C98.2252 20.3968 98.5698 20.5404 98.9296 20.5419C99.2894 20.5433 99.6352 20.4026 99.8917 20.1502Z" fill="#211715"/>
<path d="M111.43 12.5237C112.123 12.2858 112.838 12.1166 113.564 12.0185L113.201 12.0674C113.431 12.0371 113.662 12.014 113.894 11.9981C114.254 11.9901 114.599 11.8483 114.86 11.6003C115.116 11.3445 115.259 10.9976 115.259 10.6359C115.259 10.2742 115.116 9.92728 114.86 9.67151C114.733 9.54443 114.583 9.44381 114.417 9.37551C114.251 9.30722 114.073 9.27261 113.894 9.27371C112.808 9.3427 111.736 9.55283 110.705 9.89882C110.366 10.001 110.076 10.2232 109.89 10.5239C109.799 10.6786 109.74 10.8496 109.716 11.0271C109.691 11.2046 109.702 11.3851 109.748 11.5584C109.793 11.7317 109.872 11.8944 109.981 12.0371C110.089 12.1798 110.224 12.2998 110.379 12.3902C110.536 12.4823 110.71 12.5419 110.89 12.5655C111.071 12.5891 111.254 12.5763 111.43 12.5277V12.5237Z" fill="#211715"/>
<path d="M201.236 199.232C208.114 199.232 213.71 204.828 213.71 211.706C213.71 218.583 208.114 224.177 201.236 224.177C194.358 224.177 188.762 218.583 188.762 211.706C188.762 204.828 194.358 199.232 201.236 199.232Z" fill="black"/>
<path d="M161.296 210.259C161.296 183.565 182.644 172.937 200.5 172.937C218.355 172.937 239.704 184.167 239.704 210.259C239.704 236.35 218.356 247.58 200.5 247.58C182.644 247.58 161.296 236.952 161.296 210.259Z" fill="#7A7473"/>
<path d="M168.673 210.26C168.673 188.59 186.003 179.963 200.5 179.963C214.996 179.963 232.327 189.079 232.327 210.26C232.327 231.441 214.996 240.557 200.5 240.557C186.004 240.557 168.673 231.929 168.673 210.26Z" fill="white"/>
<path d="M169.937 210.259C169.955 203.462 171.85 196.623 176.316 191.445C180.161 186.987 185.354 184.051 190.966 182.509C196.367 181.02 202.043 180.828 207.532 181.948C213.301 183.154 218.769 185.747 223 189.867C227.696 194.547 230.523 200.778 230.953 207.393C231.501 214.421 230.052 221.587 225.874 227.359C222.415 232.137 217.22 235.566 211.708 237.433C206.372 239.236 200.683 239.738 195.113 238.897C189.383 238.009 183.813 235.823 179.412 232.125C174.526 227.96 171.309 222.169 170.356 215.82C170.068 213.981 169.929 212.121 169.937 210.259C169.933 208.635 167.408 208.632 167.412 210.259C167.431 217.677 169.538 224.97 174.383 230.685C178.465 235.502 184.182 238.752 190.225 240.426C196.086 242.045 202.249 242.244 208.203 241.005C214.478 239.759 220.269 236.75 224.895 232.33C230.069 227.24 232.891 220.404 233.47 213.221C234.069 205.778 232.479 197.998 228.051 191.884C224.211 186.578 218.679 182.815 212.517 180.698C206.702 178.736 200.498 178.217 194.438 179.186C188.263 180.084 182.449 182.65 177.623 186.607C172.368 191.113 168.912 197.362 167.888 204.208C167.573 206.209 167.413 208.232 167.409 210.258C167.405 211.883 169.93 211.885 169.934 210.258L169.937 210.259Z" fill="#211715"/>
<path d="M162.557 210.259C162.575 201.838 164.925 193.378 170.445 186.941C175.203 181.395 181.67 177.724 188.639 175.802C195.355 173.944 202.417 173.704 209.243 175.103C216.408 176.601 223.21 179.843 228.462 184.969C234.35 190.718 237.659 198.503 238.303 206.696C238.987 215.415 237.184 224.332 231.994 231.49C227.68 237.444 221.231 241.701 214.348 244.026C210.981 245.166 207.487 245.89 203.944 246.18C200.528 246.446 197.093 246.321 193.706 245.805C186.625 244.696 179.741 241.969 174.288 237.378C168.134 232.199 164.35 225.029 163.068 217.092C162.718 214.831 162.547 212.547 162.557 210.259C162.554 208.635 160.029 208.632 160.032 210.259C160.051 219.325 162.627 228.267 168.561 235.247C173.553 241.121 180.521 245.085 187.898 247.131C195.075 249.12 202.623 249.366 209.915 247.85C217.51 246.262 224.802 242.695 230.356 237.228C236.662 231.017 240.112 222.679 240.82 213.918C241.557 204.783 239.61 195.253 234.174 187.752C229.477 181.273 222.693 176.678 215.16 174.104C208.087 171.727 200.545 171.093 193.174 172.256C185.648 173.411 178.348 176.431 172.5 181.357C166.066 186.884 161.842 194.547 160.604 202.938C160.226 205.36 160.035 207.808 160.032 210.259C160.029 211.884 162.554 211.886 162.557 210.259Z" fill="#211715"/>
<path d="M3.79395 210.259C3.79395 183.565 25.1421 172.937 42.9978 172.937C60.8535 172.937 82.2022 184.167 82.2022 210.259C82.2022 236.35 60.854 247.58 42.9978 247.58C25.1416 247.58 3.79395 236.952 3.79395 210.259Z" fill="#7A7473"/>
<path d="M11.1709 210.26C11.1709 188.59 28.501 179.963 42.9978 179.963C57.4945 179.963 74.8246 189.079 74.8246 210.26C74.8246 231.441 57.494 240.557 42.9978 240.557C28.5015 240.557 11.1709 231.929 11.1709 210.26Z" fill="white"/>
<path d="M12.4355 210.259C12.4529 203.462 14.3477 196.623 18.814 191.445C22.6595 186.987 27.8523 184.051 33.4644 182.509C38.8649 181.02 44.5407 180.828 50.0296 181.948C55.7995 183.154 61.2668 185.747 65.4985 189.867C70.1937 194.547 73.0213 200.778 73.4515 207.393C73.9986 214.421 72.5499 221.587 68.3724 227.359C64.9135 232.137 59.7181 235.566 54.2065 237.433C48.8705 239.236 43.1807 239.738 37.6113 238.897C31.8809 238.009 26.3115 235.823 21.9099 232.125C17.0236 227.96 13.8073 222.169 12.8537 215.82C12.5664 213.981 12.4266 212.121 12.4355 210.259C12.4313 208.635 9.90618 208.632 9.91039 210.259C9.92933 217.677 12.0362 224.97 16.8807 230.685C20.963 235.502 26.6803 238.752 32.7231 240.426C38.5845 242.045 44.7475 242.244 50.7009 241.005C56.9764 239.759 62.7667 236.75 67.3929 232.33C72.5672 227.24 75.389 220.404 75.9677 213.221C76.5674 205.778 74.9766 197.998 70.5492 191.884C66.709 186.578 61.1769 182.815 55.0146 180.698C49.2001 178.736 42.9959 178.217 36.9364 179.186C30.7608 180.084 24.9471 182.65 20.1213 186.607C14.866 191.113 11.41 197.362 10.3865 204.208C10.071 206.209 9.9108 208.232 9.90723 210.258C9.90302 211.883 12.4281 211.885 12.4323 210.258L12.4355 210.259Z" fill="#211715"/>
<path d="M5.05538 210.259C5.07274 201.838 7.42267 193.378 12.9432 186.94C17.7014 181.395 24.1683 177.724 31.1371 175.802C37.8534 173.944 44.9146 173.704 51.7414 175.103C58.9064 176.601 65.7079 179.843 70.9596 184.969C76.8484 190.717 80.1568 198.503 80.8007 206.696C81.4846 215.415 79.6817 224.331 74.4916 231.49C70.1779 237.443 63.7294 241.7 56.8464 244.026C53.4793 245.166 49.9851 245.89 46.4419 246.18C43.0262 246.446 39.5912 246.32 36.2042 245.805C29.1233 244.696 22.2387 241.969 16.7856 237.378C10.6317 232.199 6.84768 225.029 5.56567 217.092C5.2159 214.831 5.04528 212.547 5.05538 210.259C5.05223 208.635 2.52712 208.631 2.53028 210.259C2.54869 219.325 5.12535 228.267 11.0588 235.247C16.0512 241.121 23.0189 245.085 30.3959 247.131C37.573 249.12 45.1211 249.366 52.4127 247.85C60.008 246.261 67.3003 242.695 72.854 237.227C79.1604 231.017 82.6098 222.678 83.3184 213.917C84.0549 204.783 82.1085 195.253 76.6721 187.752C71.9754 181.273 65.1908 176.677 57.6581 174.104C50.5852 171.726 43.0428 171.092 35.6723 172.256C28.1459 173.41 20.8457 176.431 14.998 181.357C8.56408 186.884 4.34006 194.547 3.10158 202.938C2.72388 205.36 2.53288 207.808 2.53028 210.259C2.52712 211.884 5.05223 211.886 5.05538 210.259Z" fill="#211715"/>
<path fill-rule="evenodd" clip-rule="evenodd" d="M63.7937 177.25L60.7574 183.805L52.0226 202.663C54.4196 204.938 55.9192 208.149 55.9192 211.707C55.9192 218.583 50.3238 224.178 43.4452 224.178C36.5676 224.178 30.9717 218.584 30.9717 211.707C30.9717 204.829 36.5671 199.233 43.4452 199.233C44.183 199.233 44.9043 199.301 45.6067 199.424L54.2795 180.7L57.3127 174.152L69.3455 148.175C67.5863 149.213 65.5376 149.812 63.3509 149.812C61.3674 149.812 59.7595 148.204 59.7595 146.221V129.737C59.7595 127.754 61.3674 126.146 63.3509 126.146C69.185 126.146 74.0426 130.391 75.0072 135.953L83.5286 117.556C84.1171 116.287 85.3884 115.474 86.7876 115.474H97.5003C99.4838 115.474 101.092 117.082 101.092 119.065C101.092 121.049 99.4838 122.657 97.5003 122.657H89.082L83.9001 133.843C84.0519 134.012 84.1905 134.196 84.3121 134.399L118.742 191.789H136.237C137.602 191.789 138.713 190.678 138.713 189.314V163.749C138.713 153.1 147.377 144.436 158.025 144.436H185.787V95.3588C185.787 93.3753 187.395 91.7673 189.379 91.7673H247.197C249.18 91.7673 250.788 93.3753 250.788 95.3588V161.463C250.788 163.447 249.18 165.055 247.197 165.055H228.047C236.147 169.71 243.048 176.456 247.867 184.786C248.86 186.504 248.273 188.7 246.556 189.693C244.84 190.686 242.643 190.1 241.649 188.382C233.326 173.993 217.84 165.054 201.236 165.054C175.511 165.054 154.583 185.982 154.583 211.707C154.583 213.691 152.975 215.299 150.992 215.299H100.591C99.3273 215.299 98.1565 214.634 97.5085 213.549L69.0464 165.909L63.7937 177.25ZM243.605 114.318V144.436H202.622H192.97V114.318H243.605ZM192.97 107.135V98.9502H243.605V107.135H192.97ZM102.629 208.116L73.1165 158.717C72.9837 158.494 72.8292 158.292 72.6594 158.109L80.284 141.648L113.627 197.228C114.276 198.31 115.445 198.972 116.707 198.972H136.236C141.562 198.972 145.895 194.639 145.895 189.314V163.749C145.895 157.061 151.336 151.618 158.024 151.618H243.605V157.871H201.235C172.758 157.871 149.377 180.099 147.523 208.116H102.629Z" fill="black"/>
<path d="M243.605 144.436V114.318H192.97V144.436H202.622H243.605Z" fill="#00A69C"/>
<path d="M192.97 98.9502V107.135H243.605V98.9502H192.97Z" fill="#00A69C"/>
<path d="M73.1165 158.717L102.629 208.116H147.523C149.377 180.099 172.758 157.871 201.235 157.871H243.605V151.618H158.024C151.336 151.618 145.895 157.061 145.895 163.749V189.314C145.895 194.639 141.562 198.972 136.236 198.972H116.707C115.445 198.972 114.276 198.31 113.627 197.228L80.284 141.648L72.6594 158.109C72.8292 158.292 72.9837 158.494 73.1165 158.717Z" fill="#00A69C"/>
<path d="M114.836 109.211L109.954 114.194C109.068 115.098 108.135 116.033 106.929 116.423C105.246 116.968 103.43 116.336 101.66 116.3C99.2126 116.251 95.5847 117.721 93.694 119.276C92.1317 120.648 90.8459 122.305 89.9058 124.159C89.5574 124.767 88.8744 127.38 91.0213 127.779C91.3366 127.812 91.655 127.764 91.9461 127.639C92.2372 127.513 92.4914 127.316 92.6841 127.064C92.3841 127.49 91.5476 130.303 93.6099 131.126C94.0807 131.299 94.5992 131.289 95.063 131.098C95.5269 130.907 95.9022 130.549 96.1149 130.095C95.7989 131.189 95.966 133.366 98.1141 133.675C98.3872 133.695 98.661 133.65 98.9134 133.544C99.1658 133.438 99.3896 133.274 99.5666 133.065C100.366 132.152 101.078 131.165 101.692 130.118C101.345 130.632 101.213 131.26 101.323 131.87C101.433 132.479 101.777 133.021 102.282 133.38C102.592 133.64 103.764 133.679 104.639 132.96C105.508 132.223 106.266 131.365 106.891 130.413C107.261 129.619 107.826 128.932 108.535 128.417C109.243 127.902 110.071 127.576 110.94 127.469C111.649 127.374 112.341 127.177 112.995 126.886C114.131 126.352 114.703 125.094 115.321 123.997C116.895 121.147 118.858 118.529 121.152 116.219" fill="white"/>
<path d="M93.21 128.302C93.712 127.909 94.1267 127.417 94.4279 126.855C94.8291 126.251 95.2235 125.644 95.6536 125.059C95.8463 124.796 95.4832 125.266 95.6446 125.072C95.6889 125.018 95.7321 124.964 95.777 124.91C95.8707 124.801 95.9685 124.694 96.0725 124.594C96.439 124.24 96.8294 123.907 97.2164 123.576C97.3989 123.421 97.583 123.266 97.7694 123.115C97.883 123.024 97.9967 122.935 98.1064 122.846C98.3303 122.667 97.916 122.985 98.1632 122.8C98.5513 122.513 98.9435 122.232 99.3486 121.97C99.5046 121.88 99.6413 121.761 99.7509 121.618C99.8604 121.475 99.9406 121.312 99.9869 121.138C100.033 120.964 100.045 120.783 100.02 120.605C99.9963 120.426 99.9372 120.255 99.8464 120.099C99.7556 119.944 99.635 119.808 99.4914 119.7C99.3479 119.591 99.1843 119.512 99.0101 119.467C98.8359 119.422 98.6545 119.412 98.4764 119.437C98.2983 119.463 98.1269 119.523 97.9723 119.615C97.1103 120.18 96.2843 120.799 95.4991 121.466C94.8232 121.989 94.2022 122.579 93.6459 123.228C93.1464 123.86 92.698 124.527 92.2547 125.199C92.0842 125.455 91.9177 125.71 91.7404 125.964C91.7092 126.009 91.6762 126.052 91.6455 126.097C91.5216 126.277 91.9064 125.798 91.7194 126.001C91.6943 126.026 91.6708 126.052 91.6489 126.08C91.5171 126.258 91.945 125.875 91.8308 125.947C91.5185 126.13 91.2915 126.429 91.1998 126.779C91.1081 127.129 91.1592 127.501 91.3418 127.813C91.5244 128.126 91.8236 128.353 92.1735 128.444C92.5234 128.536 92.8955 128.485 93.2077 128.302H93.21Z" fill="#211715"/>
<path d="M113.873 108.247L110.163 112.034C109.199 113.017 108.259 114.197 107.05 114.888C105.743 115.636 104.081 115.163 102.674 115.01C101.364 114.879 100.042 114.989 98.7713 115.334C96.0645 115.984 93.591 117.372 91.6257 119.343C90.6799 120.372 89.8533 121.505 89.1616 122.72C88.659 123.492 88.3304 124.365 88.1984 125.277C88.1019 125.837 88.143 126.411 88.3181 126.952C88.4932 127.492 88.7972 127.981 89.2037 128.378C90.5966 129.602 92.4014 129.23 93.6477 128.026L91.5052 126.374C91.1063 127.074 90.8901 127.863 90.8767 128.669C90.8633 129.475 91.0531 130.271 91.4285 130.984C92.7998 133.277 96.0197 132.986 97.2915 130.782L94.7985 129.73C94.3148 131.544 94.878 133.738 96.6539 134.625C97.2491 134.952 97.9322 135.082 98.6057 134.997C99.2792 134.913 99.9088 134.617 100.405 134.154C101.374 133.152 102.203 132.024 102.872 130.801L100.516 129.424C100.19 129.959 99.9986 130.566 99.959 131.191C99.9194 131.817 100.033 132.442 100.289 133.014C100.481 133.48 100.784 133.892 101.172 134.215C101.56 134.537 102.02 134.76 102.514 134.864C104.89 135.202 106.828 133.055 107.986 131.227C108.343 130.494 108.876 129.86 109.538 129.384C110.366 128.992 111.25 128.733 112.158 128.615C113.317 128.382 114.364 127.768 115.132 126.869C115.803 125.937 116.405 124.956 116.933 123.935C118.368 121.473 120.11 119.205 122.118 117.184C123.364 115.944 121.436 114.015 120.189 115.255C118.632 116.817 117.224 118.522 115.984 120.347C115.373 121.239 114.801 122.154 114.266 123.094C113.905 123.901 113.432 124.653 112.862 125.328C112.261 125.905 111.361 126 110.579 126.155C109.727 126.307 108.909 126.605 108.159 127.035C106.568 127.988 105.961 129.627 104.768 130.942C104.452 131.332 104.086 131.679 103.681 131.974C103.523 132.078 103.345 132.147 103.159 132.178C103.206 132.171 102.962 132.197 102.994 132.188C102.782 132.248 102.925 132.138 102.926 132.188C102.926 132.2 103.24 132.486 102.954 132.139C102.858 132.039 102.778 131.924 102.718 131.798C102.664 131.632 102.65 131.455 102.676 131.283C102.703 131.11 102.77 130.946 102.871 130.804C103.7 129.257 101.428 127.921 100.515 129.427C100.085 130.16 99.6069 130.864 99.0845 131.534C98.6901 132.027 98.4594 132.471 97.8911 132.198C97.653 132.085 97.6893 132.073 97.587 131.931C97.4165 131.694 97.4734 131.747 97.3915 131.416C97.37 131.332 97.3529 131.108 97.3694 131.305C97.358 131.172 97.3626 131.042 97.3603 130.907C97.3603 130.86 97.4137 130.47 97.3603 130.778C97.3796 130.669 97.4052 130.562 97.4336 130.455C97.8314 128.972 95.7219 128.049 94.9405 129.404C94.757 129.723 94.4893 129.959 94.1535 129.869C94.0055 129.835 93.8756 129.746 93.7886 129.622C93.8926 129.751 93.6903 129.428 93.6863 129.419C93.7562 129.584 93.6784 129.337 93.663 129.279C93.6511 129.233 93.6193 128.944 93.6375 129.155C93.6287 129.039 93.6263 128.922 93.6301 128.806C93.6301 128.692 93.6386 128.579 93.6511 128.465C93.6301 128.66 93.6511 128.477 93.671 128.382C93.7136 128.203 93.7738 128.026 93.8136 127.846C93.8784 127.559 93.6738 128.048 93.8653 127.75C94.7178 126.422 92.8186 125.037 91.7235 126.097C91.4734 126.338 91.2825 126.467 91.0984 126.389C90.9603 126.332 90.975 126.258 91.0006 126.332C90.9796 126.27 90.937 126.118 90.9722 126.313C90.9574 126.23 90.9154 126.151 90.9017 126.066C90.858 125.787 90.8909 125.99 90.8955 126.044C90.8878 125.957 90.8855 125.871 90.8887 125.784C90.8887 125.711 90.9551 125.234 90.9017 125.517C90.9301 125.366 90.9637 125.216 91.0069 125.069C91.0734 124.842 91.1546 124.734 91.0421 124.932C92.1218 123.044 93.284 121.139 95.1303 119.901C96.9048 118.659 98.9676 117.892 101.122 117.672C102.413 117.594 103.68 117.927 104.961 117.992C106.353 118.092 107.739 117.722 108.896 116.942C110.088 116.018 111.191 114.986 112.192 113.859L115.805 110.172C117.034 108.917 115.107 106.989 113.876 108.243L113.873 108.247Z" fill="#211715"/>
<path d="M97.1891 130.951C97.5756 130.289 97.933 129.61 98.3257 128.951C98.4178 128.796 98.5115 128.643 98.6099 128.492C98.7131 128.364 98.8069 128.229 98.8906 128.088C98.8622 128.151 98.7258 128.283 98.8446 128.154C98.8968 128.097 98.9474 128.04 98.9997 127.983C99.1412 127.831 99.2838 127.68 99.4271 127.529C99.9107 127.017 100.399 126.511 100.911 126.027C101.152 125.8 101.398 125.578 101.65 125.362C101.784 125.249 101.92 125.135 102.058 125.021C102.114 124.976 102.171 124.931 102.228 124.887C102.516 124.659 102.004 125.057 102.303 124.83C102.601 124.64 102.822 124.351 102.928 124.014C103.022 123.66 102.972 123.282 102.79 122.963C102.605 122.654 102.306 122.429 101.957 122.338C101.608 122.246 101.237 122.295 100.924 122.474C99.6968 123.417 98.5511 124.462 97.4989 125.596C96.954 126.154 96.4706 126.769 96.0571 127.43C95.6303 128.132 95.2502 128.862 94.8359 129.572C94.7455 129.727 94.6864 129.898 94.6621 130.075C94.6377 130.253 94.6486 130.433 94.694 130.607C94.7394 130.78 94.8186 130.942 94.9269 131.085C95.0352 131.228 95.1705 131.348 95.3252 131.438C95.4798 131.529 95.6508 131.588 95.8283 131.612C96.0058 131.636 96.1863 131.626 96.3596 131.58C96.5329 131.535 96.6956 131.456 96.8383 131.347C96.981 131.239 97.101 131.104 97.1914 130.949L97.1891 130.951Z" fill="#211715"/>
<path d="M102.662 131.078C102.882 130.728 103.123 130.392 103.375 130.065L103.162 130.341C103.913 129.389 104.729 128.489 105.605 127.65C105.732 127.524 105.833 127.373 105.902 127.208C105.97 127.042 106.006 126.865 106.006 126.686C106.006 126.506 105.971 126.329 105.903 126.163C105.834 125.997 105.734 125.847 105.607 125.72C105.48 125.593 105.33 125.492 105.164 125.424C104.999 125.355 104.821 125.319 104.642 125.319C104.463 125.319 104.285 125.354 104.12 125.423C103.954 125.491 103.803 125.592 103.677 125.718C102.4 126.906 101.268 128.242 100.306 129.696C100.127 130.009 100.078 130.38 100.169 130.729C100.261 131.078 100.485 131.377 100.795 131.562C101.109 131.737 101.479 131.784 101.827 131.693C102.174 131.602 102.473 131.379 102.661 131.073L102.662 131.078Z" fill="#211715"/>
<path d="M118.109 200.048C118.661 199.993 119.206 199.883 119.736 199.722C126.555 197.479 131.677 195.756 138.976 193.369C139.818 193.061 140.581 192.567 141.206 191.924C141.832 191.281 142.305 190.506 142.589 189.655C143.087 188.123 142.213 186.522 141.435 185.108C140.407 183.241 139.499 181.31 138.717 179.327C137.615 183.708 132.689 184.457 130.263 184.834C128.731 185.072 126.365 185.194 125.132 184.235C124.288 185.472 123.201 186.525 121.937 187.329C118.988 189.122 115.624 190.439 113.386 193.069C111.861 194.861 111.166 197.94 113.055 199.343C114.087 200.112 116.337 200.248 118.109 200.048Z" fill="white"/>
<path d="M125.626 177.695C126.045 179.997 124.918 182.469 123.456 184.193C121.799 186.147 119.474 187.128 117.291 188.37C115.095 189.62 112.714 191.172 111.476 193.454C110.38 195.472 110.007 198.334 111.817 200.08C113.432 201.637 116.193 201.643 118.276 201.391C119.481 201.204 120.663 200.897 121.806 200.473C123.194 200.016 124.581 199.557 125.968 199.096C128.597 198.225 131.226 197.354 133.855 196.482C135.33 195.995 136.806 195.51 138.282 195.026C139.663 194.67 140.94 193.991 142.008 193.045C143.17 191.978 143.908 190.527 144.086 188.959C144.193 187.231 143.279 185.655 142.484 184.191C140.841 181.158 139.522 177.96 138.549 174.65C138.053 172.97 135.42 173.684 135.919 175.375C136.741 178.158 137.79 180.869 139.056 183.481C139.667 184.74 140.438 185.939 140.992 187.224C141.243 187.709 141.354 188.253 141.314 188.797C141.273 189.341 141.082 189.863 140.762 190.304C140.16 191.211 139.256 191.875 138.212 192.18C136.833 192.631 135.454 193.084 134.077 193.538C131.578 194.362 129.081 195.188 126.585 196.017C124.105 196.84 121.628 197.796 119.107 198.481C118.22 198.703 117.306 198.797 116.393 198.76C115.56 198.793 114.731 198.639 113.966 198.31C113.706 198.119 113.505 197.86 113.383 197.561C113.262 197.262 113.226 196.936 113.279 196.618C113.363 195.729 113.693 194.882 114.232 194.171C115.66 192.245 118.005 191.071 120.057 189.952C121.221 189.372 122.341 188.707 123.407 187.963C124.505 187.125 125.467 186.122 126.257 184.989C127.107 183.851 127.721 182.555 128.065 181.177C128.408 179.799 128.473 178.367 128.256 176.963C128.157 176.616 127.925 176.322 127.611 176.144C127.297 175.966 126.926 175.918 126.577 176.011C126.233 176.114 125.942 176.346 125.764 176.658C125.587 176.971 125.537 177.34 125.625 177.689L125.626 177.695Z" fill="#211715"/>
<path fill-rule="evenodd" clip-rule="evenodd" d="M205.059 143.696L207.34 114.69C209.078 114.69 212.88 115.147 214.184 116.972L211.903 141.415C210.599 142.392 207.405 144.217 205.059 143.696ZM220.376 131.638C218.03 138.156 213.749 140.872 211.903 141.415V143.696C214.187 144.217 218.069 142.392 219.724 141.415V143.696C228.85 143.99 236.512 135.529 236.346 128.704C236.085 118.015 225.808 114.473 221.354 114.69V116.972C219.79 114.886 215.922 114.582 214.184 114.69V116.972C219.659 120.1 220.782 125.228 220.659 127.401L221.354 116.972C226.568 119.318 228.85 122.531 228.85 128.704C228.85 134.878 222.006 140.111 219.724 141.415L220.376 131.638Z" fill="#EDEDED"/>
<path fill-rule="evenodd" clip-rule="evenodd" d="M104.983 27.9992L100.941 21.4049C101.315 21.1333 102.204 20.6372 102.769 20.8259L106.099 26.439C105.971 26.853 105.569 27.7446 104.983 27.9992ZM106.393 23.0122C106.907 24.7806 106.411 26.0336 106.099 26.439L106.455 26.9296C107.028 26.6848 107.577 25.6856 107.781 25.2166L108.137 25.7073C110.146 24.3445 110.471 21.3274 109.369 19.8857C107.642 17.6276 104.879 18.472 103.955 19.2148L104.311 19.7054C103.649 19.5013 102.77 20.0403 102.413 20.3353L102.769 20.8259C104.436 20.6431 105.478 21.5704 105.791 22.0569L104.311 19.7054C105.799 19.3951 106.792 19.7296 107.757 21.0571C108.721 22.3847 108.067 24.5798 107.781 25.2166L106.393 23.0122Z" fill="#EDEDED"/>
</g>
<defs>
<clipPath id="clip0_1200_11268">
<rect width="253" height="253" fill="white" transform="translate(0 0.75)"/>
</clipPath>
</defs>
</svg>
