<svg width="270" height="246" viewBox="0 0 270 246" fill="none" xmlns="http://www.w3.org/2000/svg">
<g clip-path="url(#clip0_1200_12050)">
<path d="M248.412 178.34C252.18 177.472 255.736 175.861 258.873 173.602C261.624 171.598 263.316 168.764 265.29 163.434C267.903 156.378 268.655 147.9 267.089 138.866C266.771 137.03 266.369 134.856 265.834 132.289C264.968 128.138 263.797 123.027 262.103 119.137C259.603 113.387 256.347 108.786 252.405 103.91C244.645 94.3155 239.77 89.9918 230.095 83.6745C214.499 75.4789 204.524 72.9522 186.958 70.0518C169.392 67.1513 134.42 69.3855 117.366 74.4941C98.2818 80.2104 83.0186 90.7814 64.9542 107.365C62.9571 109.173 60.4968 110.39 57.848 110.881C44.3552 113.48 38.8015 114.054 27.4776 116.664C21.4235 118.059 15.3381 120.307 10.7625 124.511C2.66085 131.953 1.83396 144.184 1.69203 155.238C1.61699 159.043 2.10833 162.838 3.14992 166.499C5.48201 174.47 9.21335 179.009 19.1267 179.695L69.5938 180.09C103.394 180.09 167.32 179.498 201.277 179.89L248.412 178.34Z" fill="#00A69C"/>
<path d="M201.279 169.25C195.857 169.25 187.851 169.259 187.851 169.259C183.409 169.259 99.0091 169.555 83.3821 169.472H70.9414C71.7442 171.912 72.152 174.465 72.1494 177.034C72.1494 178.082 72.0995 179.1 72.0095 180.089L200.126 179.897C200.046 178.964 200.001 178.014 200.001 177.032C199.998 174.392 200.43 171.769 201.279 169.268V169.25Z" fill="#00A69C"/>
<path d="M108.536 113.6C95.4836 113.884 82.9823 114.049 75.2804 113.942C75.0516 113.94 74.8286 113.87 74.6382 113.743C74.4479 113.616 74.2986 113.437 74.2083 113.227C74.118 113.017 74.0906 112.785 74.1295 112.559C74.1685 112.334 74.272 112.124 74.4275 111.957C79.5841 106.479 84.0757 100.815 91.8849 95.598C101.413 89.2381 113.948 83.6784 126.756 80.5694C134.957 78.3014 143.452 77.2783 151.957 77.5343C151.136 83.0607 147.919 99.7271 146.242 112.503C136.254 112.883 122.097 113.306 108.536 113.6Z" fill="white"/>
<path d="M3.456 137.629C4.73065 132.607 6.93614 128.026 10.7614 124.512C13.4016 122.161 16.4446 120.306 19.744 119.037C22.4179 119.444 25.5982 119.966 28.3287 120.554C29.0511 120.65 29.7584 120.838 30.4336 121.112C31.0846 121.44 31.9708 122.136 31.5663 123.358C30.2962 127.368 28.5147 131.197 26.2658 134.752C25.2931 136.411 23.7136 137.628 21.8608 138.144C15.2717 139.899 8.11884 139.647 2.97559 139.765C3.11773 139.045 3.27787 138.333 3.456 137.629Z" fill="white"/>
<path d="M153.93 112.194C154.596 106.921 155.583 100.505 156.554 94.147C157.46 88.2168 158.353 82.3333 158.953 77.4812C164.389 77.5425 169.813 77.8517 175.224 78.4087C183.286 79.2349 191.328 80.6142 198.998 83.2395C210.814 87.2853 227.196 94.5194 234.727 104.484C234.805 104.589 234.855 104.711 234.873 104.841C234.891 104.97 234.875 105.102 234.828 105.224C234.781 105.346 234.704 105.454 234.604 105.537C234.503 105.621 234.384 105.678 234.255 105.703C219.112 108.613 176.524 110.937 159.853 111.877L153.93 112.194Z" fill="white"/>
<path d="M30.0206 122.935C29.1608 125.668 28.0389 128.312 26.6704 130.83C25.4643 133.061 24.2923 135.72 21.673 136.533C16.054 138.279 9.88666 138.066 4.07177 138.147C2.01553 138.176 2.00954 141.375 4.07177 141.345C9.0611 141.275 14.0511 141.253 18.9845 140.402C21.4498 139.976 23.8585 139.451 25.8015 137.777C27.6545 136.177 28.7919 133.701 29.8993 131.564C31.1927 129.069 32.2654 126.466 33.1049 123.785C33.7213 121.816 30.6342 120.974 30.0206 122.935Z" fill="#211715"/>
<path d="M18.067 126.865C17.7451 128.482 17.6832 130.216 17.0415 131.753L17.2028 131.37C17.1648 131.458 17.1241 131.544 17.0788 131.629C16.8648 131.995 16.8051 132.431 16.9127 132.842C17.0204 133.252 17.2866 133.603 17.6528 133.817C18.0191 134.031 18.4553 134.09 18.8656 133.983C19.2759 133.875 19.6267 133.609 19.8407 133.243C20.7422 131.564 20.7862 129.548 21.1513 127.712C21.2541 127.296 21.1965 126.856 20.9901 126.48C20.8314 126.208 20.596 125.989 20.3134 125.85C20.0308 125.711 19.7136 125.659 19.4015 125.7C19.0894 125.741 18.7963 125.873 18.5589 126.08C18.3215 126.286 18.1504 126.558 18.067 126.862V126.865Z" fill="#211715"/>
<path d="M253.689 121.115C256.555 120.742 259.375 120.079 262.107 119.136C263.822 123.316 265.063 127.674 265.809 132.13C265.455 132.15 265.217 132.165 265.217 132.165C262.264 132.523 259.294 132.714 256.319 132.736C255.965 132.755 255.614 132.668 255.31 132.485C255.04 132.234 254.859 131.902 254.795 131.538C253.962 128.467 253.192 125.265 252.293 122.379C252.253 122.252 252.24 122.117 252.258 121.985C252.275 121.852 252.321 121.725 252.393 121.612C252.465 121.499 252.561 121.404 252.674 121.332C252.787 121.261 252.915 121.215 253.048 121.199C253.251 121.175 253.465 121.147 253.689 121.115Z" fill="white"/>
<path d="M72.0085 181.691C79.5259 181.685 87.0429 181.663 94.5598 181.625C103.314 181.589 112.068 181.549 120.822 181.505C130.007 181.461 139.193 181.424 148.378 181.394C157.19 181.366 166.001 181.353 174.812 181.355C182.41 181.361 190.009 181.393 197.608 181.451C198.448 181.459 199.287 181.467 200.127 181.476C202.186 181.498 202.187 178.3 200.127 178.278C192.695 178.198 185.262 178.158 177.83 178.16C169.119 178.147 160.409 178.156 151.699 178.186C142.516 178.212 133.332 178.247 124.149 178.292C115.3 178.332 106.45 178.372 97.6009 178.414C89.9223 178.446 82.244 178.471 74.5658 178.488H72.0085C69.951 178.488 69.947 181.686 72.0085 181.686V181.691Z" fill="#211715"/>
<path d="M19.1233 178.098C13.8448 177.699 9.20257 175.86 6.61329 171.023C3.30239 164.838 3.12848 157.63 3.39434 150.796C3.65021 144.247 4.34117 137.336 7.45884 131.449C10.9277 124.897 17.3182 121.225 24.2352 119.168C30.3913 117.336 36.8225 116.267 43.1411 115.157C46.3541 114.592 49.5697 114.038 52.7786 113.453C56.4593 112.781 60.3013 112.364 63.5635 110.388C65.144 109.328 66.6193 108.119 67.9692 106.777C69.4999 105.393 71.0444 104.025 72.6027 102.674C75.5538 100.12 78.5609 97.6261 81.6552 95.2473C87.2593 90.8846 93.2127 86.99 99.455 83.6029C105.416 80.4036 111.692 77.8291 118.182 75.9203C123.35 74.4814 128.611 73.4055 133.929 72.7007C146.583 70.8647 159.371 70.1048 172.154 70.4292C184.47 70.7787 196.685 72.7569 208.482 76.3121C214.938 78.301 221.202 80.8655 227.199 83.9747C232.885 86.9998 238.092 90.8477 242.654 95.3939C247.723 100.313 252.255 105.757 256.174 111.634C258.324 114.777 260.084 118.168 261.417 121.735C262.605 125.259 263.552 128.859 264.251 132.511C265.855 140.185 267.034 147.911 265.687 155.73C265.067 159.338 263.983 162.851 262.461 166.181C261.291 168.736 259.832 171.017 257.487 172.63C254.611 174.605 251.387 176.019 247.986 176.798C245.981 177.259 246.83 180.343 248.837 179.881C255.322 178.389 261.63 174.951 264.713 168.856C268.143 161.914 269.78 154.224 269.475 146.487C269.27 142.388 268.733 138.313 267.87 134.301C267.164 130.415 266.25 126.57 265.131 122.783C262.784 115.213 258.335 108.698 253.391 102.593C249.19 97.4148 244.705 92.4915 239.448 88.353C236.739 86.1444 233.885 84.1187 230.907 82.2896C227.584 80.4291 224.147 78.7805 220.616 77.3535C214.445 74.7219 208.048 72.6567 201.504 71.1835C194.971 69.6306 188.346 68.4934 181.669 67.7787C168.865 66.5467 155.796 67.1263 143.023 68.4023C130.478 69.6557 118.164 71.7939 106.494 76.7199C92.4954 82.6287 80.228 91.7219 68.8727 101.698C65.905 104.303 63.1251 107.609 59.2685 108.863C57.3007 109.412 55.2994 109.832 53.277 110.121C51.3834 110.471 49.4884 110.813 47.5921 111.145C41.2928 112.254 34.9941 113.34 28.7501 114.739C21.3441 116.398 13.6762 118.895 8.37701 124.636C3.61556 129.791 1.63928 136.661 0.771743 143.475C-0.18308 150.973 -0.555548 159.108 1.47137 166.449C2.89661 171.612 5.41127 176.71 10.4226 179.189C13.1599 180.446 16.1143 181.162 19.1233 181.297C21.1768 181.451 21.1668 178.252 19.1233 178.098Z" fill="#211715"/>
<path d="M109.735 113.107C102.855 113.256 95.9735 113.381 89.0919 113.445C86.2454 113.471 83.3991 113.483 80.5531 113.48C79.4084 113.48 78.1857 113.492 77.0883 113.457C77.1103 113.457 77.1409 113.497 77.1496 113.495C77.2648 113.481 77.045 113.511 77.1362 113.485C76.9557 113.535 77.2115 113.322 77.1262 113.489C77.0889 113.563 77.043 113.598 77.1316 113.494C77.4068 113.17 77.8918 112.606 78.243 112.203C81.8851 107.878 85.9811 103.956 90.4605 100.506C95.5421 96.7708 100.982 93.5505 106.701 90.892C112.723 88.0461 118.983 85.7342 125.41 83.9831C132.054 82.0578 138.882 80.8322 145.782 80.3263C147.478 80.2268 149.175 80.1824 150.875 80.1931C150.979 80.1931 151.403 80.303 151.299 80.1984C151.265 80.336 151.243 80.4762 151.233 80.6175C151.186 80.8974 151.138 81.1779 151.091 81.4584C150.698 83.7658 150.291 86.0706 149.885 88.376C148.847 94.2935 147.819 100.214 146.912 106.153C146.687 107.615 146.471 109.079 146.263 110.545C146.27 111.084 146.177 111.62 145.989 112.125C146.397 111.558 146.137 112.059 146.127 112.059C145.965 112.081 145.801 112.087 145.638 112.077L144.389 112.122C141.383 112.23 138.377 112.331 135.372 112.425C128.535 112.64 121.698 112.828 114.86 112.99C113.153 113.031 111.445 113.07 109.736 113.107C107.681 113.152 107.674 116.35 109.736 116.305C117.199 116.143 124.662 115.949 132.124 115.723C135.436 115.623 138.747 115.517 142.059 115.403C142.794 115.377 143.529 115.351 144.264 115.325C145.105 115.353 145.947 115.303 146.779 115.176C148.636 114.749 149.099 113.177 149.331 111.528C150.24 105.064 151.33 98.6306 152.451 92.2047C152.923 89.4934 153.404 86.7842 153.874 84.0757C154.052 83.0509 154.238 82.0261 154.398 80.998C154.661 79.3129 153.957 77.6158 152.189 77.1227C151.404 76.9729 150.602 76.9316 149.806 77.0001C148.829 77.0081 147.852 77.0341 146.874 77.0781C145.05 77.1598 143.228 77.3022 141.411 77.5052C137.628 77.9218 133.875 78.575 130.174 79.4608C123.093 81.1251 116.162 83.3727 109.452 86.1805C103.213 88.784 97.2445 91.9942 91.6332 95.7648C86.4368 99.3262 81.6933 103.507 77.5074 108.215C76.3777 109.334 75.3402 110.543 74.405 111.83C74.0243 112.461 73.8727 113.205 73.9759 113.935C74.079 114.665 74.4306 115.337 74.9714 115.839C76.0608 116.853 77.5973 116.668 78.9693 116.677C80.3832 116.686 81.7971 116.688 83.211 116.684C90.1333 116.67 97.0549 116.562 103.976 116.429C105.895 116.393 107.815 116.353 109.734 116.311C111.79 116.261 111.797 113.062 109.735 113.107Z" fill="#211715"/>
<path d="M202.116 86.5547C204.333 90.2176 206.319 94.0157 208.062 97.9266C209.906 101.809 211.681 105.722 213.417 109.654C213.633 110.018 213.984 110.282 214.393 110.39C214.803 110.497 215.238 110.439 215.605 110.227C215.964 110.006 216.223 109.656 216.33 109.248C216.437 108.841 216.383 108.408 216.179 108.039C214.442 104.108 212.668 100.194 210.824 96.3121C209.081 92.401 207.095 88.6029 204.877 84.9402C203.771 83.2118 201.002 84.8136 202.116 86.554V86.5547Z" fill="#211715"/>
<path d="M156.724 113.299C157.732 105.352 159.042 97.4445 160.224 89.5221C160.523 87.5178 160.813 85.5127 161.096 83.5067C161.229 82.5454 161.36 81.5839 161.487 80.6222C161.512 80.4356 161.541 80.2491 161.561 80.0618C161.65 79.2309 161.6 79.9092 161.561 79.9032L161.087 80.1978L161.74 80.2097C162.068 80.2164 162.395 80.224 162.721 80.2324C166.862 80.3395 170.995 80.5902 175.12 80.9847C183.158 81.7483 191.186 83.0596 198.873 85.5855C204.832 87.529 210.635 89.9222 216.232 92.7444C221.834 95.5862 227.354 98.9184 231.84 103.365C232.349 103.87 232.842 104.39 233.319 104.926C233.541 105.174 233.759 105.426 233.971 105.682C234.065 105.795 234.158 105.908 234.25 106.022C234.609 106.468 234.462 106.555 234.783 105.822C235.12 105.062 235.041 105.262 234.55 105.356C234.342 105.394 234.134 105.432 233.925 105.468C233.481 105.546 233.037 105.62 232.592 105.691C231.66 105.842 230.727 105.981 229.794 106.109C228.987 106.221 227.989 106.35 226.923 106.48C216.116 107.803 205.24 108.597 194.381 109.35C184.158 110.058 173.925 110.658 163.697 111.233L161.045 111.382C158.998 111.498 158.985 114.697 161.045 114.581C171.252 114.006 181.458 113.422 191.658 112.734C203.133 111.959 214.625 111.143 226.049 109.785C228.307 109.518 230.563 109.224 232.811 108.875C233.716 108.735 234.619 108.585 235.519 108.417C235.881 108.37 236.229 108.246 236.54 108.053C236.85 107.86 237.116 107.602 237.318 107.298C237.973 106.249 237.602 105.166 236.91 104.275C232.953 99.1816 227.472 95.3463 221.918 92.1767C215.977 88.8531 209.765 86.04 203.348 83.7678C195.753 81.0646 187.876 79.2316 179.868 78.3041C175.528 77.7657 171.171 77.3933 166.797 77.1867C165.763 77.1361 164.728 77.0945 163.694 77.0621C162.628 77.0281 161.362 76.8169 160.328 77.1081C158.142 77.7244 158.317 80.403 158.068 82.2127C156.903 90.6428 155.509 99.039 154.31 107.466C154.033 109.41 153.77 111.355 153.52 113.301C153.522 113.724 153.691 114.13 153.991 114.429C154.29 114.729 154.696 114.898 155.119 114.9C155.54 114.89 155.941 114.718 156.239 114.42C156.537 114.123 156.708 113.722 156.718 113.301L156.724 113.299Z" fill="#211715"/>
<path d="M150.576 118.491C149.843 123.647 149.176 128.789 148.954 133.996C148.692 140.096 148.563 146.2 148.522 152.305C148.499 155.719 148.49 159.133 148.495 162.546C148.495 164.605 151.693 164.608 151.693 162.546C151.693 156.476 151.693 150.404 151.82 144.334C151.93 139.051 152.02 133.733 152.511 128.469C152.796 125.415 153.227 122.377 153.659 119.34C153.758 118.932 153.698 118.501 153.49 118.135C153.283 117.77 152.944 117.497 152.543 117.373C152.134 117.263 151.698 117.319 151.33 117.528C150.962 117.737 150.691 118.083 150.576 118.491Z" fill="#211715"/>
<path d="M77.9239 122.051C76.2923 126.922 75.3466 131.997 75.1141 137.129C74.9551 142.538 75.1052 147.952 75.5639 153.343C75.8057 156.365 76.1382 159.379 76.584 162.378C76.699 162.785 76.9699 163.131 77.3381 163.34C77.7063 163.549 78.142 163.605 78.5509 163.495C78.9541 163.373 79.295 163.101 79.5029 162.735C79.7109 162.369 79.7702 161.936 79.6683 161.528C78.9347 156.385 78.4915 151.205 78.341 146.013C78.1725 141.149 78.0365 136.167 78.8961 131.359C79.4075 128.495 80.113 125.669 81.0076 122.901C81.6433 120.938 78.5563 120.097 77.9239 122.051Z" fill="#211715"/>
<path d="M82.3973 171.846C87.7211 171.874 93.0456 171.862 98.3694 171.856C106.673 171.848 114.975 171.833 123.278 171.81C132.452 171.789 141.625 171.765 150.797 171.738C158.518 171.716 166.239 171.694 173.96 171.671C178.112 171.659 182.264 171.647 186.416 171.636H186.864C188.922 171.636 188.925 168.438 186.864 168.438C183.301 168.438 179.738 168.456 176.175 168.467L153.968 168.533C144.846 168.56 135.724 168.585 126.602 168.607C118.084 168.628 109.566 168.645 101.047 168.658C95.2377 168.666 89.4275 168.677 83.6179 168.658L82.3953 168.653C80.337 168.642 80.3344 171.84 82.3953 171.852L82.3973 171.846Z" fill="#211715"/>
<path d="M215.922 117.071C217.201 120.332 218.296 123.662 219.201 127.045C220.283 130.742 221.325 134.46 222.194 138.214C222.337 138.835 222.478 139.458 222.593 140.086C222.615 140.208 222.627 140.335 222.655 140.455C222.705 140.664 222.642 140 222.637 140.321C222.637 140.383 222.671 140.477 222.65 140.537C222.724 140.188 222.873 139.859 223.086 139.574L224.219 139.107C221.478 139.134 218.74 139.301 216.016 139.606C213.041 139.988 210.139 140.805 207.402 142.031C202.982 143.935 199.385 147.353 197.259 151.671C197.056 152.04 197.002 152.472 197.109 152.88C197.216 153.287 197.475 153.637 197.833 153.859C198.2 154.069 198.635 154.127 199.044 154.019C199.453 153.912 199.804 153.648 200.021 153.285C200.992 151.208 202.371 149.349 204.077 147.817C205.655 146.496 207.429 145.428 209.335 144.652C211.916 143.569 214.648 142.889 217.435 142.635C218.719 142.507 220.009 142.436 221.299 142.392C221.922 142.37 222.546 142.354 223.169 142.336C223.916 142.316 224.774 142.41 225.349 141.837C226.09 141.1 225.824 140.013 225.656 139.111C225.449 137.995 225.177 136.891 224.904 135.79C224.076 132.447 223.152 129.127 222.18 125.821C221.303 122.565 220.244 119.359 219.011 116.22C218.886 115.819 218.614 115.48 218.248 115.273C217.883 115.065 217.452 115.005 217.044 115.103C216.635 115.217 216.288 115.488 216.078 115.856C215.868 116.225 215.812 116.662 215.922 117.071Z" fill="#211715"/>
<path d="M261.42 117.697C259.412 118.395 257.346 118.916 255.246 119.253C254.785 119.337 254.323 119.414 253.86 119.485C253.617 119.523 253.374 119.558 253.131 119.593C253.202 119.583 253.373 119.559 253.048 119.603C252.844 119.62 252.641 119.653 252.442 119.701C250.887 120.158 250.43 121.751 250.861 123.16C251.636 125.698 252.272 128.276 252.952 130.841C253.305 132.173 253.601 133.623 255.065 134.136C256.075 134.386 257.121 134.454 258.155 134.336C260.516 134.257 262.868 134.003 265.218 133.77C265.638 133.759 266.038 133.587 266.336 133.289C266.633 132.992 266.805 132.592 266.817 132.171C266.814 131.748 266.644 131.343 266.345 131.044C266.046 130.745 265.641 130.575 265.218 130.572C263.452 130.745 261.686 130.927 259.917 131.046C259.041 131.104 258.164 131.15 257.287 131.156C256.896 131.099 256.5 131.091 256.107 131.132C256.168 131.079 255.707 130.715 256.28 131.272C256.657 131.64 256.361 131.343 256.36 131.261C256.36 131.372 256.346 131.15 256.338 131.119C256.29 130.954 256.248 130.786 256.205 130.62C255.612 128.413 255.06 126.194 254.439 123.994C254.291 123.472 254.139 122.951 253.982 122.431C253.959 122.31 253.923 122.191 253.874 122.078C253.728 121.845 253.87 122.145 253.831 122.278C253.761 122.518 253.491 122.611 253.365 122.744C253.187 122.786 253.165 122.796 253.298 122.774L253.595 122.735C254.501 122.613 255.404 122.47 256.302 122.307C258.332 121.972 260.328 121.464 262.271 120.787C262.673 120.665 263.014 120.393 263.222 120.027C263.43 119.661 263.489 119.229 263.387 118.82C263.272 118.413 263.001 118.068 262.633 117.859C262.265 117.65 261.829 117.594 261.42 117.703V117.697Z" fill="#211715"/>
<path d="M144.969 126.242C144.941 124.883 145.134 123.353 144.155 122.262C143.859 121.943 143.5 121.689 143.101 121.517C142.701 121.344 142.27 121.256 141.835 121.259C140.975 121.233 140.11 121.259 139.25 121.259H131.362C131.138 121.259 130.912 121.25 130.688 121.259C130.056 121.266 129.442 121.467 128.929 121.836C128.416 122.205 128.03 122.724 127.823 123.32C127.67 123.93 127.624 124.561 127.69 125.186C127.652 125.889 127.723 126.593 127.901 127.274C128.115 127.857 128.501 128.361 129.008 128.72C129.516 129.078 130.12 129.274 130.741 129.282C132.881 129.364 135.04 129.282 137.182 129.282H141.273C141.499 129.282 141.727 129.292 141.953 129.282C142.751 129.264 143.51 128.937 144.072 128.371C144.633 127.805 144.954 127.042 144.965 126.245C144.965 125.821 144.796 125.414 144.497 125.114C144.197 124.814 143.79 124.646 143.366 124.646C142.942 124.646 142.535 124.814 142.235 125.114C141.935 125.414 141.767 125.821 141.767 126.245C141.778 126.01 142.075 126.15 141.828 126.084C141.554 126.052 141.277 126.052 141.002 126.084H131.341C131.269 126.084 130.794 126.028 130.75 126.084C130.75 126.08 130.838 126.144 130.89 126.176C130.97 126.226 130.859 126.453 130.914 126.192C130.94 125.856 130.93 125.519 130.885 125.186C130.881 125.049 130.922 124.133 130.791 124.418C130.75 124.506 130.658 124.406 130.709 124.46C130.769 124.526 131.266 124.46 131.355 124.46H141.304C141.505 124.485 141.708 124.485 141.908 124.46C141.861 124.53 141.665 124.264 141.729 124.243C141.696 124.909 141.71 125.577 141.771 126.242C141.813 128.297 145.011 128.304 144.969 126.242Z" fill="#211715"/>
<path d="M212.291 126.242C212.263 124.883 212.456 123.353 211.478 122.262C211.182 121.943 210.822 121.689 210.423 121.517C210.024 121.344 209.593 121.256 209.158 121.259C208.298 121.233 207.432 121.259 206.572 121.259H198.684C198.46 121.259 198.234 121.25 198.01 121.259C197.378 121.266 196.764 121.467 196.251 121.836C195.739 122.205 195.352 122.724 195.145 123.32C194.992 123.93 194.947 124.561 195.012 125.186C194.977 125.888 195.05 126.591 195.229 127.271C195.443 127.854 195.829 128.358 196.337 128.717C196.844 129.076 197.448 129.272 198.069 129.279C200.21 129.361 202.369 129.279 204.51 129.279H208.601C208.827 129.279 209.056 129.289 209.281 129.279C210.079 129.261 210.838 128.935 211.4 128.368C211.962 127.802 212.282 127.04 212.293 126.242C212.293 125.818 212.125 125.411 211.825 125.111C211.525 124.812 211.118 124.643 210.694 124.643C210.27 124.643 209.863 124.812 209.563 125.111C209.263 125.411 209.095 125.818 209.095 126.242C209.106 126.008 209.403 126.147 209.156 126.081C208.882 126.049 208.605 126.049 208.331 126.081H198.669C198.597 126.081 198.122 126.025 198.078 126.081C198.078 126.077 198.166 126.141 198.219 126.174C198.299 126.224 198.187 126.451 198.243 126.189C198.268 125.854 198.258 125.517 198.213 125.183C198.209 125.046 198.251 124.131 198.119 124.415C198.078 124.504 197.986 124.403 198.037 124.457C198.097 124.524 198.594 124.457 198.683 124.457H208.626C208.826 124.483 209.029 124.483 209.23 124.457C209.182 124.528 208.987 124.261 209.051 124.24C209.018 124.906 209.031 125.574 209.092 126.239C209.135 128.297 212.333 128.304 212.291 126.242Z" fill="#211715"/>
<path d="M93.2686 117.845C92.6962 118.345 92.1671 118.893 91.6868 119.482C91.3667 119.862 91.0696 120.26 90.7973 120.675C90.4463 121.157 90.2347 121.726 90.1856 122.319C90.1829 122.643 90.2651 122.963 90.4243 123.245C90.5834 123.528 90.8138 123.763 91.0925 123.929C91.4828 124.126 91.9105 124.237 92.3471 124.256C92.7836 124.312 93.222 124.349 93.6611 124.372C94.1495 124.397 94.6392 124.406 95.127 124.404C95.4404 124.412 95.754 124.4 96.0658 124.367C96.3637 124.335 96.6499 124.234 96.9009 124.07C97.1519 123.907 97.3606 123.686 97.5097 123.426C97.7406 122.834 97.8884 122.214 97.9488 121.582C98.0643 121.038 98.204 120.5 98.3679 119.969C98.4755 119.56 98.4186 119.125 98.2095 118.758C98.0004 118.39 97.6556 118.12 97.2492 118.004C96.841 117.9 96.4087 117.958 96.0424 118.166C95.6762 118.374 95.4043 118.715 95.2836 119.118C95.1296 119.621 94.9944 120.13 94.8838 120.645C94.83 120.895 94.7807 121.147 94.7358 121.398C94.7085 121.667 94.6599 121.933 94.5906 122.193L94.7518 121.812L94.7132 121.878L94.9631 121.554L94.9184 121.596L95.2416 121.346L95.1796 121.381L95.5614 121.22C95.5209 121.239 95.477 121.251 95.4321 121.254L95.8572 121.197C94.6592 121.235 93.4599 121.186 92.2692 121.047L92.6943 121.105C92.5983 121.095 92.5033 121.077 92.4104 121.051L92.7922 121.212C92.7528 121.197 92.7159 121.176 92.6829 121.149L93.0068 121.399L92.9635 121.355L93.214 121.679L93.1827 121.626L93.3439 122.008L93.3259 121.933L93.3832 122.358L93.3879 122.279L93.3306 122.705C93.348 122.635 93.3703 122.567 93.3972 122.5L93.236 122.882C93.4436 122.443 93.7038 122.03 94.0109 121.653L93.761 121.976C94.2894 121.298 94.8816 120.671 95.5294 120.106C95.8275 119.805 95.9948 119.399 95.9948 118.975C95.9948 118.552 95.8275 118.145 95.5294 117.844C95.2247 117.554 94.8198 117.392 94.3987 117.392C93.9776 117.392 93.5727 117.554 93.268 117.844L93.2686 117.845Z" fill="#211715"/>
<path d="M96.8237 119.543C96.5343 120.487 96.3177 121.453 96.176 122.43C96.1701 122.521 96.141 122.609 96.0914 122.685C96.0292 122.75 95.9448 122.79 95.8549 122.796C94.603 122.842 93.3494 122.785 92.1069 122.625C92.0437 122.621 91.9825 122.602 91.9287 122.568C91.875 122.535 91.8304 122.488 91.799 122.433C91.7705 122.33 91.7834 122.22 91.835 122.126C92.4851 120.924 93.3548 119.856 94.399 118.975L96.8237 119.543Z" fill="#211715"/>
<path d="M90.7969 108.425C90.7465 107.225 91.0864 106.04 91.7657 105.049C92.8135 103.859 94.2443 103.075 95.8102 102.83L97.7212 102.763C98.2904 102.816 98.834 103.025 99.2924 103.366C99.7508 103.708 100.106 104.169 100.32 104.699C100.738 106.271 100.52 109.847 100.56 110.544C100.665 112.88 100.605 115.22 100.38 117.547C100.27 118.504 99.6148 119.519 97.9464 119.173C96.278 118.827 93.8546 118.513 93.0917 117.593C92.3096 116.474 91.7928 115.192 91.5805 113.843C91.1937 112.058 90.9319 110.247 90.7969 108.425Z" fill="#00A69C"/>
<path d="M92.3963 108.425C92.4229 107.133 92.7621 106.051 93.7089 105.383C94.234 105.005 94.8174 104.716 95.436 104.527C95.7395 104.426 96.0599 104.386 96.3788 104.41C97.2917 104.379 97.9593 104.165 98.593 104.877C98.8058 105.146 98.9157 105.482 98.9028 105.825C98.9694 106.531 98.9834 107.24 98.9854 107.949C98.9934 110.34 99.0674 112.746 98.9641 115.135C98.9335 115.845 98.8975 116.601 98.8168 117.282C98.8035 117.39 98.7609 117.494 98.7376 117.599C98.7969 117.337 98.6336 117.761 98.7162 117.633C98.7989 117.505 98.9328 117.62 98.6556 117.662C98.8142 117.638 98.4491 117.641 98.4677 117.641C97.816 117.58 97.1716 117.456 96.5434 117.272C95.866 117.167 95.204 116.98 94.5725 116.714C94.2706 116.564 94.3459 116.613 94.186 116.392C93.9462 116.042 93.7569 115.661 93.6236 115.259C93.358 114.469 93.1529 113.661 93.01 112.84C92.6739 111.39 92.4685 109.913 92.3963 108.426C92.3796 106.368 89.1813 106.364 89.198 108.426C89.2832 110.199 89.527 111.96 89.9263 113.69C90.2921 115.595 90.8438 117.989 92.5109 119.193C93.9575 120.238 96.075 120.492 97.7921 120.763C98.2474 120.865 98.7188 120.872 99.1772 120.786C99.6357 120.699 100.072 120.52 100.458 120.258C100.845 119.997 101.174 119.66 101.426 119.267C101.678 118.875 101.847 118.435 101.923 117.974C102.474 114.744 102.184 111.327 102.183 108.058C102.183 106.308 102.258 104.282 101.076 102.868C100.569 102.276 99.9271 101.815 99.2042 101.523C98.4814 101.232 97.699 101.119 96.9232 101.193C95.2073 101.181 93.5264 101.679 92.0938 102.623C90.0948 103.977 89.2453 106.051 89.1967 108.426C89.1567 110.484 92.355 110.483 92.3963 108.425Z" fill="#211715"/>
<path d="M33.1056 123.782C33.2981 123.164 33.3027 122.503 33.1188 121.883C32.9349 121.262 32.5709 120.71 32.0729 120.297C31.0214 119.427 29.7601 119.223 28.4635 118.949C25.8795 118.403 23.2716 117.973 20.6616 117.57C20.2532 117.471 19.8221 117.531 19.4565 117.738C19.0909 117.946 18.8184 118.285 18.6947 118.687C18.585 119.096 18.6406 119.531 18.8496 119.899C19.0586 120.268 19.4041 120.539 19.8114 120.654C22.0222 120.995 24.2297 121.358 26.4246 121.791C27.4835 121.931 28.5293 122.158 29.5515 122.468C29.6649 122.515 29.7742 122.571 29.8787 122.635C29.9127 122.654 30.1239 122.811 29.972 122.689C29.8201 122.568 30.0273 122.752 30.0533 122.777C30.1139 122.843 30.1146 122.839 30.0573 122.766C30 122.693 30.0006 122.688 30.0506 122.766C30.1006 122.844 30.0986 122.841 30.0633 122.755C30.028 122.669 30.032 122.666 30.0599 122.755C30.0879 122.845 30.0873 122.845 30.0733 122.755C30.0593 122.666 30.0633 122.665 30.0659 122.766C30.0186 123.051 30.1839 122.37 30.022 122.934C29.9092 123.343 29.9635 123.78 30.173 124.149C30.3824 124.518 30.7298 124.788 31.1387 124.901C31.5476 125.014 31.9846 124.959 32.3535 124.75C32.7223 124.541 32.9929 124.193 33.1056 123.784V123.782Z" fill="#211715"/>
<path d="M48.6765 153.706C34.798 153.706 25.2051 164.454 25.2051 177.033C25.2051 191.593 34.2842 200.798 48.6772 200.798C63.4027 200.798 72.1493 191.593 72.1493 177.033C72.1493 164.369 62.5065 153.706 48.6765 153.706Z" fill="#211715"/>
<path d="M223.472 153.706C209.594 153.706 200.001 164.454 200.001 177.033C200.001 191.593 209.08 200.798 223.473 200.798C238.199 200.798 246.945 191.593 246.945 177.033C246.945 164.369 237.302 153.706 223.472 153.706Z" fill="#211715"/>
<path d="M48.6768 152.106C43.0323 152.075 37.5369 153.917 33.0518 157.344C28.951 160.566 25.9805 165.008 24.5696 170.029C21.8211 179.757 24.6629 191.484 32.9318 197.672C36.9297 200.665 41.9024 202.065 46.8404 202.346C52.0376 202.64 57.4487 201.789 62.0603 199.281C71.0048 194.421 74.7775 183.68 73.5535 173.929C72.9232 168.608 70.6092 163.628 66.949 159.715C63.2604 155.86 58.4117 153.318 53.143 152.476C51.6667 152.238 50.1742 152.113 48.6788 152.104C46.6205 152.094 46.6179 155.293 48.6788 155.302C53.6098 155.256 58.4167 156.848 62.3461 159.827C65.9271 162.655 68.5132 166.551 69.7289 170.949C70.9358 175.56 70.8544 180.414 69.4936 184.982C68.4192 188.888 66.1392 192.355 62.9785 194.889C59.4212 197.489 55.1677 198.967 50.7643 199.132C46.1614 199.419 41.3553 198.786 37.2882 196.641C33.6556 194.729 30.7514 191.678 29.0219 187.955C27.1041 183.667 26.392 178.936 26.9624 174.273C27.4841 169.614 29.5281 165.257 32.7774 161.878C36.0268 158.499 40.3 156.287 44.9348 155.583C46.1728 155.391 47.424 155.298 48.6768 155.304C50.7343 155.295 50.7383 152.097 48.6768 152.106Z" fill="#211715"/>
<path d="M48.6782 168.971C47.5927 168.949 46.5139 169.146 45.506 169.55C44.4982 169.954 43.5819 170.556 42.8117 171.322C42.0414 172.087 41.433 172.999 41.0225 174.004C40.6121 175.01 40.4081 176.087 40.4226 177.173C40.4226 182.294 43.6162 185.531 48.6782 185.531C53.8588 185.531 56.9338 182.294 56.9338 177.173C56.9493 176.087 56.746 175.009 56.3359 174.003C55.9258 172.997 55.3174 172.085 54.547 171.319C53.7765 170.554 52.8598 169.952 51.8515 169.548C50.8432 169.145 49.764 168.948 48.6782 168.971Z" fill="white"/>
<path d="M223.472 152.106C217.828 152.075 212.332 153.917 207.847 157.344C203.747 160.566 200.777 165.008 199.366 170.029C196.617 179.757 199.459 191.484 207.727 197.672C211.725 200.665 216.699 202.065 221.637 202.346C226.834 202.64 232.245 201.789 236.856 199.281C245.8 194.421 249.573 183.68 248.349 173.929C247.719 168.608 245.405 163.628 241.745 159.715C238.056 155.86 233.207 153.317 227.939 152.476C226.462 152.238 224.97 152.113 223.474 152.104C221.416 152.094 221.413 155.293 223.474 155.302C228.405 155.256 233.212 156.848 237.142 159.827C240.723 162.655 243.309 166.551 244.524 170.949C245.731 175.56 245.65 180.414 244.29 184.982C243.215 188.888 240.935 192.355 237.775 194.889C234.217 197.489 229.963 198.967 225.56 199.132C220.958 199.419 216.151 198.786 212.084 196.641C208.451 194.729 205.547 191.678 203.817 187.955C201.9 183.667 201.188 178.936 201.758 174.273C202.28 169.614 204.324 165.257 207.573 161.878C210.822 158.499 215.096 156.287 219.73 155.583C220.968 155.391 222.22 155.298 223.472 155.304C225.53 155.295 225.535 152.097 223.472 152.106Z" fill="#211715"/>
<path d="M223.474 168.971C222.388 168.949 221.31 169.146 220.302 169.55C219.294 169.954 218.378 170.557 217.608 171.322C216.838 172.087 216.229 172.999 215.819 174.005C215.409 175.01 215.205 176.087 215.219 177.173C215.219 182.294 218.412 185.531 223.475 185.531C228.655 185.531 231.731 182.294 231.731 177.173C231.746 176.087 231.543 175.009 231.132 174.003C230.722 172.997 230.114 172.084 229.343 171.319C228.573 170.554 227.656 169.951 226.647 169.548C225.639 169.144 224.56 168.948 223.474 168.971Z" fill="white"/>
<path fill-rule="evenodd" clip-rule="evenodd" d="M159 157.573L161.403 127.02C163.234 127.02 167.239 127.501 168.612 129.423L166.209 155.17C164.836 156.2 161.472 158.123 159 157.573ZM175.135 144.871C172.663 151.737 168.155 154.598 166.209 155.17V157.573C168.616 158.123 172.705 156.2 174.448 155.17V157.573C184.061 157.883 192.132 148.971 191.956 141.782C191.682 130.522 180.857 126.791 176.165 127.02V129.423C174.517 127.226 170.443 126.906 168.612 127.02V129.423C174.38 132.719 175.562 138.12 175.432 140.409L176.165 129.423C181.658 131.895 184.061 135.279 184.061 141.782C184.061 148.284 176.851 153.797 174.448 155.17L175.135 144.871Z" fill="#EDEDED"/>
<path fill-rule="evenodd" clip-rule="evenodd" d="M99 157.573L101.403 127.02C103.234 127.02 107.239 127.501 108.612 129.423L106.209 155.17C104.836 156.2 101.472 158.123 99 157.573ZM115.135 144.871C112.663 151.737 108.155 154.598 106.209 155.17V157.573C108.616 158.123 112.705 156.2 114.448 155.17V157.573C124.061 157.883 132.132 148.971 131.956 141.782C131.682 130.522 120.857 126.791 116.165 127.02V129.423C114.517 127.226 110.443 126.906 108.612 127.02V129.423C114.38 132.719 115.562 138.12 115.432 140.409L116.165 129.423C121.658 131.895 124.061 135.279 124.061 141.782C124.061 148.284 116.851 153.797 114.448 155.17L115.135 144.871Z" fill="#EDEDED"/>
</g>
<defs>
<clipPath id="clip0_1200_12050">
<rect width="269.5" height="269.5" fill="white"/>
</clipPath>
</defs>
</svg>
