<svg width="22" height="22" viewBox="0 0 22 22" fill="none" xmlns="http://www.w3.org/2000/svg">
<g id="Group">
<path id="Vector" d="M19.2503 22C20.0103 22 20.6253 21.3851 20.6253 20.625V17.6736L16.2988 22H19.2503Z" fill="#00A69C"/>
<path id="Vector_2" d="M1.375 20.625C1.375 21.3851 1.98997 22 2.75 22H5.70144L1.375 17.6736V20.625Z" fill="#00A69C"/>
<path id="Vector_3" d="M7.21875 10.3125H14.7812C14.9713 10.3125 15.125 10.1588 15.125 9.96875C15.125 9.77866 14.9713 9.625 14.7812 9.625H7.21875C7.02866 9.625 6.875 9.77866 6.875 9.96875C6.875 10.1588 7.02866 10.3125 7.21875 10.3125Z" fill="#00A69C"/>
<path id="Vector_4" d="M20.625 0H1.375C0.614969 0 0 0.614969 0 1.375V4.125C0 4.88503 0.614969 5.5 1.375 5.5H20.625C21.385 5.5 22 4.88503 22 4.125V1.375C22 0.614969 21.385 0 20.625 0Z" fill="#00A69C"/>
<path id="Vector_5" d="M1.375 16.7018L6.67356 22H15.3264L20.625 16.7018V6.1875H1.375V16.7018ZM7.21875 8.9375H14.7812C15.3508 8.9375 15.8125 9.3995 15.8125 9.96875C15.8125 10.538 15.3508 11 14.7812 11H7.21875C6.64916 11 6.1875 10.538 6.1875 9.96875C6.1875 9.3995 6.64916 8.9375 7.21875 8.9375Z" fill="#00A69C"/>
</g>
</svg>
