<svg width="22" height="22" viewBox="0 0 22 22" fill="none" xmlns="http://www.w3.org/2000/svg">
<g id="SVGRepo_iconCarrier">
<g id="Group">
<path id="Vector" d="M20.625 0H1.375C0.614969 0 0 0.614969 0 1.375V4.125C0 4.88503 0.614969 5.5 1.375 5.5V20.625C1.375 21.385 1.98997 22 2.75 22H19.25C20.01 22 20.625 21.385 20.625 20.625V5.5C21.385 5.5 22 4.88503 22 4.125V1.375C22 0.614969 21.385 0 20.625 0ZM19.9375 17.3893L16.0139 21.3125H5.98606L2.0625 17.3893V5.5H19.9375V17.3893ZM2.0625 20.625V18.3611L5.01394 21.3125H2.75C2.3705 21.3125 2.0625 21.0045 2.0625 20.625ZM19.25 21.3125H16.9861L19.9375 18.3611V20.625C19.9375 21.0045 19.6295 21.3125 19.25 21.3125ZM21.3125 4.125C21.3125 4.5045 21.0045 4.8125 20.625 4.8125H1.375C0.9955 4.8125 0.6875 4.5045 0.6875 4.125V1.375C0.6875 0.9955 0.9955 0.6875 1.375 0.6875H20.625C21.0045 0.6875 21.3125 0.9955 21.3125 1.375V4.125Z" fill="#696969" stroke="#696969" stroke-width="0.3"/>
<path id="Vector_2" d="M7.21875 11H14.7813C15.3508 11 15.8125 10.538 15.8125 9.96875C15.8125 9.3995 15.3508 8.9375 14.7813 8.9375H7.21875C6.64916 8.9375 6.1875 9.3995 6.1875 9.96875C6.1875 10.538 6.64916 11 7.21875 11ZM7.21875 9.625H14.7813C14.9713 9.625 15.125 9.77866 15.125 9.96875C15.125 10.1588 14.9713 10.3125 14.7813 10.3125H7.21875C7.02866 10.3125 6.875 10.1588 6.875 9.96875C6.875 9.77866 7.02866 9.625 7.21875 9.625Z" fill="#696969" stroke="#696969" stroke-width="0.3"/>
</g>
</g>
</svg>
