<svg width="24" height="24" viewBox="0 0 24 24" fill="none" xmlns="http://www.w3.org/2000/svg">
<g id="settings-svgrepo-com">
<path id="Vector" d="M18.2567 6.10125L17.9611 5.41187L18.2567 6.10112V6.10125ZM11.0126 2C10.5842 1.99999 10.1708 2.15706 9.85054 2.44146C9.53028 2.72585 9.32543 3.11782 9.2748 3.54312L10.7643 3.7205C10.7715 3.65973 10.8008 3.60372 10.8465 3.56309C10.8923 3.52245 10.9514 3.5 11.0126 3.5V2ZM12.9866 2H11.0126V3.5H12.9866V2ZM14.7243 3.54312C14.6737 3.11782 14.4688 2.72585 14.1486 2.44146C13.8283 2.15706 13.4149 1.99999 12.9866 2V3.5C13.0477 3.5 13.1068 3.52245 13.1526 3.56309C13.1983 3.60372 13.2276 3.65973 13.2348 3.7205L14.7243 3.54312ZM14.8767 4.82312L14.7243 3.54312L13.2348 3.7205L13.3871 5.0005L14.8767 4.82312ZM17.9611 5.41187L16.7719 5.92187L17.3631 7.30037L18.5522 6.79037L17.9611 5.41187ZM20.1663 6.14525C19.9522 5.77432 19.6094 5.49481 19.203 5.35965C18.7966 5.22449 18.3547 5.24307 17.9611 5.41187L18.5522 6.79037C18.6084 6.76623 18.6716 6.76369 18.7296 6.78299C18.7877 6.8023 18.8367 6.84224 18.8673 6.89525L20.1663 6.14525ZM21.1533 7.85475L20.1663 6.14525L18.8673 6.89525L19.8543 8.60475L21.1533 7.85475ZM20.6858 10.1312C21.0288 9.87475 21.2658 9.50136 21.352 9.08181C21.4382 8.66225 21.3675 8.22567 21.1533 7.85475L19.8543 8.60475C19.8849 8.65775 19.895 8.72014 19.8827 8.78008C19.8703 8.84003 19.8364 8.89337 19.7874 8.93L20.6858 10.1312ZM19.5628 10.971L20.6858 10.1312L19.7874 8.93L18.6646 9.76975L19.5628 10.971ZM20.6858 13.8687L19.5628 13.029L18.6646 14.2302L19.7874 15.07L20.6858 13.8687ZM21.1533 16.1452C21.3675 15.7743 21.4382 15.3377 21.352 14.9182C21.2658 14.4986 21.0288 14.1253 20.6858 13.8687L19.7874 15.07C19.8364 15.1066 19.8703 15.16 19.8827 15.2199C19.895 15.2799 19.8849 15.3422 19.8543 15.3952L21.1533 16.1452ZM20.1663 17.8547L21.1533 16.1452L19.8543 15.3952L18.8673 17.1047L20.1663 17.8547ZM17.9611 18.5881C18.3547 18.7569 18.7966 18.7755 19.203 18.6403C19.6094 18.5052 19.9522 18.2257 20.1663 17.8547L18.8673 17.1047C18.8367 17.1577 18.7877 17.1977 18.7296 17.217C18.6716 17.2363 18.6084 17.2336 18.5522 17.2095L17.9611 18.5881ZM16.7719 18.0781L17.9611 18.5881L18.5522 17.2095L17.3632 16.6996L16.7719 18.0781ZM14.7243 20.4569L14.8765 19.1769L13.3872 18.9995L13.2348 20.2795L14.7243 20.4569ZM12.9866 22C13.4149 22 13.8283 21.8429 14.1486 21.5585C14.4688 21.2741 14.6737 20.8822 14.7243 20.4569L13.2348 20.2795C13.2276 20.3403 13.1983 20.3963 13.1526 20.4369C13.1068 20.4776 13.0477 20.5 12.9866 20.5V22ZM11.0126 22H12.9866V20.5H11.0126V22ZM9.2748 20.4569C9.32543 20.8822 9.53028 21.2741 9.85054 21.5585C10.1708 21.8429 10.5842 22 11.0126 22V20.5C10.9514 20.5 10.8923 20.4776 10.8465 20.4369C10.8008 20.3963 10.7715 20.3403 10.7643 20.2795L9.2748 20.4569ZM9.1483 19.3939L9.2748 20.4569L10.7643 20.2795L10.6378 19.2165L9.1483 19.3939ZM6.42805 16.7887L5.44693 17.2095L6.03805 18.5881L7.01918 18.1674L6.42793 16.7887H6.42805ZM5.44693 17.2095C5.3907 17.2336 5.32746 17.2363 5.26941 17.217C5.21135 17.1976 5.1624 17.1577 5.1318 17.1047L3.8328 17.8547C4.04695 18.2257 4.38969 18.5052 4.79611 18.6403C5.20254 18.7755 5.64441 18.7569 6.03805 18.5881L5.44693 17.2095ZM5.1318 17.1047L4.1448 15.3952L2.8458 16.1452L3.8328 17.8547L5.1318 17.1047ZM4.1448 15.3952C4.11421 15.3422 4.10412 15.2799 4.11644 15.2199C4.12877 15.16 4.16265 15.1066 4.21168 15.07L3.3133 13.8687C2.97029 14.1253 2.73326 14.4986 2.64711 14.9182C2.56095 15.3377 2.63164 15.7743 2.8458 16.1452L4.1448 15.3952ZM4.21168 15.07L4.97818 14.4969L4.07968 13.2956L3.3133 13.8687L4.21168 15.07ZM3.3133 10.1312L4.0798 10.7045L4.97818 9.50325L4.21168 8.93L3.3133 10.1312ZM2.8458 7.85475C2.63164 8.22567 2.56095 8.66225 2.64711 9.08181C2.73326 9.50136 2.97029 9.87475 3.3133 10.1312L4.21168 8.93C4.16265 8.89337 4.12877 8.84003 4.11644 8.78008C4.10412 8.72014 4.11421 8.65775 4.1448 8.60475L2.8458 7.85475ZM3.8328 6.14525L2.8458 7.85475L4.1448 8.60475L5.1318 6.89525L3.8328 6.14525ZM6.03805 5.41187C5.64441 5.24307 5.20254 5.22449 4.79611 5.35965C4.38969 5.49481 4.04695 5.77432 3.8328 6.14525L5.1318 6.89525C5.1624 6.84227 5.21135 6.80235 5.26941 6.78305C5.32746 6.76374 5.3907 6.76639 5.44693 6.7905L6.03805 5.41187ZM7.01918 5.83262L6.03805 5.41187L5.44693 6.7905L6.42805 7.21125L7.01918 5.83262ZM9.2748 3.54312L9.1483 4.60612L10.6378 4.7835L10.7643 3.7205L9.2748 3.54312ZM9.05555 6.98712C9.8153 6.55887 10.5168 5.79937 10.6378 4.78337L9.1483 4.60612C9.10055 5.00725 8.80218 5.40812 8.31893 5.68062L9.05555 6.98712ZM6.42805 7.21125C7.33855 7.60175 8.30993 7.4075 9.05555 6.98712L8.31893 5.68062C7.85593 5.94162 7.3838 5.989 7.01918 5.83262L6.42793 7.21125H6.42805ZM6.12455 12C6.12455 11.1125 5.80605 10.1224 4.97818 9.50325L4.0798 10.7045C4.41955 10.9586 4.62455 11.4297 4.62455 12H6.12455ZM9.05555 17.0129C8.30993 16.5925 7.33855 16.3982 6.42805 16.7887L7.01918 18.1674C7.3838 18.011 7.85593 18.0585 8.31893 18.3196L9.05555 17.0129ZM4.97818 14.4969C5.80618 13.8777 6.12455 12.8875 6.12455 12H4.62455C4.62455 12.5704 4.41943 13.0416 4.07968 13.2956L4.97818 14.4969ZM14.8129 16.9437C14.1209 17.356 13.4983 18.0665 13.3872 18.9995L14.8765 19.1769C14.9177 18.8312 15.1664 18.4791 15.5807 18.2322L14.8129 16.9437ZM17.3632 16.6996C16.4764 16.3194 15.5296 16.5167 14.8129 16.9437L15.5807 18.2322C16.0034 17.9804 16.4397 17.9357 16.7719 18.0781L17.3632 16.6996ZM10.6378 19.2165C10.5168 18.2006 9.8153 17.4412 9.05555 17.0129L8.31893 18.3196C8.80218 18.592 9.10055 18.9927 9.1483 19.3939L10.6378 19.2165ZM17.6245 12C17.6245 12.7986 17.9243 13.6767 18.6646 14.2302L19.5628 13.029C19.2963 12.8297 19.1245 12.4585 19.1245 12H17.6245ZM18.6646 9.76975C17.9243 10.3232 17.6245 11.2012 17.6245 12H19.1245C19.1245 11.5415 19.2963 11.1702 19.5628 10.971L18.6646 9.76975ZM14.8129 7.05625C15.5296 7.48325 16.4764 7.68062 17.3631 7.30037L16.7719 5.92187C16.4397 6.06437 16.0034 6.0195 15.5807 5.76762L14.8129 7.05625ZM13.3871 5.0005C13.4982 5.9335 14.1209 6.644 14.8129 7.05625L15.5807 5.76762C15.1664 5.52087 14.9178 5.16887 14.8767 4.82312L13.3871 5.0005Z" fill="#00A69C"/>
<path id="Vector_2" d="M12 15C13.6569 15 15 13.6569 15 12C15 10.3431 13.6569 9 12 9C10.3431 9 9 10.3431 9 12C9 13.6569 10.3431 15 12 15Z" stroke="#00A69C" stroke-width="1.5" stroke-linecap="round" stroke-linejoin="round"/>
</g>
</svg>
