<svg width="33" height="33" viewBox="0 0 33 33" fill="none" xmlns="http://www.w3.org/2000/svg">
<rect width="33" height="33" fill="#E5E5E5"/>
<rect x="-684" y="-7746" width="6582" height="14702" stroke="black" stroke-width="50"/>
<g clip-path="url(#clip0_38_2428)">
<rect width="360" height="820" transform="translate(-14 -44)" fill="white"/>
<mask id="path-2-inside-1_38_2428" fill="white">
<path d="M-14 -14H346V41H-14V-14Z"/>
</mask>
<path d="M-14 -14H346V41H-14V-14Z" fill="white"/>
<path d="M346 39H-14V43H346V39Z" fill="#EDEDED" mask="url(#path-2-inside-1_38_2428)"/>
<g filter="url(#filter0_d_38_2428)">
<rect x="6" y="22" width="19" height="19" rx="9.5" transform="rotate(-90 6 22)" fill="white"/>
<path d="M17.6541 18C17.7494 18 17.847 17.9623 17.9202 17.8891C18.0666 17.7427 18.0666 17.5032 17.9202 17.3569L12.9104 12.347L17.847 7.41036C17.9934 7.26399 17.9934 7.02447 17.847 6.8781C17.7007 6.73173 17.4612 6.73173 17.3148 6.8781L12.1098 12.0809C11.9634 12.2273 11.9634 12.4668 12.1098 12.6131L17.3858 17.8891C17.4612 17.9645 17.5565 18 17.6541 18Z" fill="black"/>
</g>
</g>
<defs>
<filter id="filter0_d_38_2428" x="0" y="0" width="33" height="33" filterUnits="userSpaceOnUse" color-interpolation-filters="sRGB">
<feFlood flood-opacity="0" result="BackgroundImageFix"/>
<feColorMatrix in="SourceAlpha" type="matrix" values="0 0 0 0 0 0 0 0 0 0 0 0 0 0 0 0 0 0 127 0" result="hardAlpha"/>
<feOffset dx="1" dy="4"/>
<feGaussianBlur stdDeviation="3.5"/>
<feComposite in2="hardAlpha" operator="out"/>
<feColorMatrix type="matrix" values="0 0 0 0 0 0 0 0 0 0 0 0 0 0 0 0 0 0 0.15 0"/>
<feBlend mode="normal" in2="BackgroundImageFix" result="effect1_dropShadow_38_2428"/>
<feBlend mode="normal" in="SourceGraphic" in2="effect1_dropShadow_38_2428" result="shape"/>
</filter>
<clipPath id="clip0_38_2428">
<rect width="360" height="820" fill="white" transform="translate(-14 -44)"/>
</clipPath>
</defs>
</svg>
